<svg width="41" height="41" viewBox="0 0 41 41" fill="none" xmlns="http://www.w3.org/2000/svg">
<g opacity="0.5" clip-path="url(#clip0)">
<path d="M5.93947 13.5496C5.25048 13.5496 4.66505 13.7898 4.18445 14.2708C3.70385 14.7517 3.46338 15.3285 3.46338 16.0015V26.3386C3.46338 27.0273 3.70376 27.6122 4.18445 28.0931C4.66505 28.574 5.25014 28.814 5.93922 28.814C6.62846 28.814 7.20935 28.5739 7.68203 28.0931C8.15506 27.6122 8.3914 27.0273 8.3914 26.3386V16.0015C8.3914 15.3282 8.15085 14.7514 7.67024 14.2708C7.18956 13.79 6.61238 13.5496 5.93947 13.5496Z" fill="#919191" fill-opacity="0.5"/>
<path d="M9.35352 30.0165C9.35352 30.7536 9.60998 31.3786 10.1227 31.8915C10.6356 32.4038 11.2604 32.6602 11.9978 32.6602H13.7768L13.801 38.1171C13.801 38.8063 14.0414 39.3909 14.5221 39.8718C15.0027 40.3527 15.5798 40.593 16.2528 40.593C16.9422 40.593 17.5269 40.3527 18.0078 39.8718C18.4887 39.3909 18.7289 38.8063 18.7289 38.1171V32.6602H22.046V38.1171C22.046 38.8063 22.2863 39.3909 22.7669 39.8718C23.2481 40.3527 23.833 40.593 24.5223 40.593C25.2109 40.593 25.7959 40.3527 26.2765 39.8718C26.7571 39.3909 26.9971 38.8063 26.9971 38.1171V32.6602H28.8003C29.521 32.6602 30.1382 32.4043 30.651 31.8915C31.1639 31.3786 31.4204 30.7536 31.4204 30.0165V14.0063H9.35352V30.0165Z" fill="#919191" fill-opacity="0.5"/>
<path d="M25.8432 4.27076L27.5494 1.12151C27.6618 0.9132 27.6214 0.752971 27.4295 0.640903C27.2209 0.544665 27.0608 0.592742 26.9489 0.785219L25.2178 3.95822C23.6954 3.28514 22.0853 2.9486 20.3862 2.9486C18.6876 2.9486 17.0769 3.28514 15.5544 3.95822L13.8236 0.785303C13.7118 0.592826 13.5513 0.544749 13.343 0.640988C13.1506 0.753055 13.1108 0.913284 13.2229 1.12159L14.9297 4.27076C13.1987 5.15206 11.8208 6.38211 10.7949 7.96065C9.76928 9.53928 9.25635 11.2662 9.25635 13.1409H31.4926C31.4926 11.2662 30.9798 9.53919 29.9541 7.96065C28.9279 6.38211 27.5585 5.15198 25.8432 4.27076ZM15.9751 8.84995C15.7909 9.03434 15.5707 9.12646 15.3142 9.12646C15.0578 9.12646 14.8415 9.03443 14.6651 8.84995C14.489 8.66581 14.4007 8.44538 14.4007 8.189C14.4007 7.93253 14.489 7.7121 14.6651 7.52771C14.8413 7.34331 15.0578 7.25137 15.3142 7.25137C15.5704 7.25137 15.7907 7.34323 15.9751 7.52771C16.1595 7.7121 16.2516 7.93253 16.2516 8.189C16.2516 8.44546 16.1595 8.66556 15.9751 8.84995ZM26.1079 8.84995C25.9312 9.03434 25.7149 9.12646 25.4585 9.12646C25.202 9.12646 24.9822 9.03443 24.7977 8.84995C24.6133 8.66581 24.5214 8.44538 24.5214 8.189C24.5214 7.93253 24.6133 7.7121 24.7977 7.52771C24.9821 7.34331 25.202 7.25137 25.4585 7.25137C25.7149 7.25137 25.9312 7.34323 26.1079 7.52771C26.2837 7.7121 26.3722 7.93253 26.3722 8.189C26.3722 8.44546 26.284 8.66556 26.1079 8.84995Z" fill="#919191" fill-opacity="0.5"/>
<path d="M36.5893 14.2587C36.1087 13.786 35.5238 13.5496 34.8346 13.5496C34.1617 13.5496 33.5848 13.786 33.1042 14.2587C32.6234 14.7315 32.3828 15.3126 32.3828 16.0015V26.3386C32.3828 27.0273 32.6234 27.6122 33.1042 28.0931C33.5848 28.574 34.1617 28.814 34.8346 28.814C35.5238 28.814 36.1087 28.5739 36.5893 28.0931C37.0705 27.6122 37.3108 27.0273 37.3108 26.3386V16.0015C37.3108 15.3125 37.0705 14.7314 36.5893 14.2587Z" fill="#919191" fill-opacity="0.5"/>
</g>
<defs>
<clipPath id="clip0">
<rect width="40" height="40" fill="white" transform="translate(0.386719 0.592773)"/>
</clipPath>
</defs>
</svg>
