<svg width="58" height="57" viewBox="0 0 58 57" fill="none" xmlns="http://www.w3.org/2000/svg">
<g clip-path="url(#clip0)">
<path d="M47.4677 37.4836C46.0749 37.4836 44.7517 38.0291 43.7536 39.0157C42.7554 40.0139 42.1983 41.3138 42.1983 42.7066C42.1983 44.0994 42.7438 45.3993 43.7536 46.3975C44.7633 47.3841 46.0749 47.9296 47.4677 47.9296C50.3229 47.9296 52.6442 45.585 52.6442 42.7066C52.6442 39.8282 50.3229 37.4836 47.4677 37.4836ZM47.4677 45.6082C45.866 45.6082 44.5196 44.2851 44.5196 42.7066C44.5196 41.1281 45.866 39.8049 47.4677 39.8049C49.0462 39.8049 50.3229 41.1049 50.3229 42.7066C50.3229 44.3083 49.0462 45.6082 47.4677 45.6082ZM48.814 20.0853C48.6051 19.888 48.3266 19.7836 48.0364 19.7836H42.0822C41.4439 19.7836 40.9216 20.3059 40.9216 20.9442V30.4616C40.9216 31.1 41.4439 31.6223 42.0822 31.6223H51.53C52.1683 31.6223 52.6906 31.1 52.6906 30.4616V24.0896C52.6906 23.7646 52.5514 23.4513 52.3076 23.2307L48.814 20.0853ZM50.3693 29.301H43.2429V22.0933H47.5837L50.3693 24.6003V29.301ZM19.1244 37.4836C17.7316 37.4836 16.4084 38.0291 15.4103 39.0157C14.4121 40.0139 13.855 41.3138 13.855 42.7066C13.855 44.0994 14.4005 45.3993 15.4103 46.3975C16.42 47.3841 17.7316 47.9296 19.1244 47.9296C21.9796 47.9296 24.3009 45.585 24.3009 42.7066C24.3009 39.8282 21.9796 37.4836 19.1244 37.4836ZM19.1244 45.6082C17.5227 45.6082 16.1763 44.2851 16.1763 42.7066C16.1763 41.1281 17.5227 39.8049 19.1244 39.8049C20.7029 39.8049 21.9796 41.1049 21.9796 42.7066C21.9796 44.3083 20.7029 45.6082 19.1244 45.6082ZM11.3828 38.9112H9.04984V35.8239C9.04984 35.1855 8.52754 34.6632 7.88918 34.6632C7.25082 34.6632 6.72852 35.1855 6.72852 35.8239V40.0719C6.72852 40.7103 7.25082 41.2326 7.88918 41.2326H11.3828C12.0211 41.2326 12.5434 40.7103 12.5434 40.0719C12.5434 39.4335 12.0211 38.9112 11.3828 38.9112ZM17.2673 32.5856C17.2673 31.9473 16.745 31.425 16.1067 31.425H2.02785C1.38948 31.425 0.867188 31.9473 0.867188 32.5856C0.867188 33.224 1.38948 33.7463 2.02785 33.7463H16.1067C16.745 33.7463 17.2673 33.2356 17.2673 32.5856ZM4.38399 28.3957L18.4628 28.4769C19.1012 28.4769 19.6234 27.9662 19.6351 27.3279C19.6467 26.6779 19.1244 26.1556 18.486 26.1556L4.4072 26.0743C4.39559 26.0743 4.39559 26.0743 4.39559 26.0743C3.75723 26.0743 3.23493 26.585 3.23493 27.2234C3.22333 27.8734 3.74562 28.3957 4.38399 28.3957ZM6.75173 23.1263H20.8305C21.4689 23.1263 21.9912 22.604 21.9912 21.9656C21.9912 21.3272 21.4689 20.8049 20.8305 20.8049H6.75173C6.11337 20.8049 5.59107 21.3272 5.59107 21.9656C5.59107 22.604 6.11337 23.1263 6.75173 23.1263ZM57.4377 21.5594L49.1274 14.6767C48.9185 14.5026 48.6632 14.4097 48.3846 14.4097H38.6118V10.2313C38.6118 9.59298 38.0895 9.07068 37.4512 9.07068H7.88918C7.25082 9.07068 6.72852 9.59298 6.72852 10.2313V18.7274C6.72852 19.3657 7.25082 19.888 7.88918 19.888C8.52754 19.888 9.04984 19.3657 9.04984 18.7274V11.392H36.3021V38.9112H26.7847C26.1464 38.9112 25.6241 39.4335 25.6241 40.0719C25.6241 40.7103 26.1464 41.2326 26.7847 41.2326H40.9564C41.5947 41.2326 42.117 40.7103 42.117 40.0719C42.117 39.4335 41.5947 38.9112 40.9564 38.9112H38.6234V16.731H47.9784L55.5459 22.9986L55.4646 38.888H54.2575C53.6192 38.888 53.0969 39.4103 53.0969 40.0487C53.0969 40.687 53.6192 41.2093 54.2575 41.2093H56.6137C57.252 41.2093 57.7743 40.6987 57.7743 40.0603L57.8672 22.4647C57.8556 22.1165 57.7047 21.7799 57.4377 21.5594Z" fill="white"/>
</g>
<defs>
<clipPath id="clip0">
<rect width="57" height="57" fill="white" transform="translate(0.867188)"/>
</clipPath>
</defs>
</svg>
