<svg width="44" height="43" viewBox="0 0 44 43" fill="none" xmlns="http://www.w3.org/2000/svg">
<path d="M43.2246 20.0311H41.1615V10.5408C41.1615 8.26558 39.3105 6.41462 37.0353 6.41462H34.2411L31.3816 1.2734C30.9458 0.487684 30.1164 0 29.2169 0C28.7977 0 28.3818 0.108117 28.0145 0.311897L17.0405 6.41449H4.78243C2.50721 6.41449 0.65625 8.26545 0.65625 10.5407V38.8737C0.65625 41.1489 2.50721 42.9999 4.78243 42.9999H37.0353C39.3105 42.9999 41.1615 41.1489 41.1615 38.8737V30.5528H43.2246V20.0311ZM37.0353 8.06501C38.3061 8.06501 39.3443 9.03049 39.4837 10.2659H36.3825L35.1594 8.06501H37.0353ZM28.8175 1.7544C29.2045 1.5374 29.7253 1.68917 29.939 2.07465L34.4943 10.2651H13.5118L28.8175 1.7544ZM39.5109 38.8737C39.5109 40.2386 38.4001 41.3495 37.0352 41.3495H4.78243C3.41748 41.3495 2.30664 40.2386 2.30664 38.8737V10.5408C2.30664 9.17585 3.41748 8.06501 4.78243 8.06501H14.0729L10.1151 10.266H5.29823C4.84188 10.266 4.47297 10.6357 4.47297 11.0913C4.47297 11.5469 4.84188 11.9165 5.29823 11.9165H7.14676H37.3002H39.5109V20.0319H33.476C30.6734 20.0319 28.3926 22.3129 28.3926 25.1153V25.4702C28.3926 28.2728 30.6736 30.5537 33.476 30.5537H39.5109V38.8737ZM41.574 28.9024H41.1615H33.476C31.5829 28.9024 30.043 27.3625 30.043 25.4693V25.1144C30.043 23.2213 31.5828 21.6814 33.476 21.6814H41.1615H41.574V28.9024ZM36.0037 25.3597C36.0037 26.3665 35.1883 27.1817 34.1816 27.1817C33.1748 27.1817 32.3595 26.3664 32.3595 25.3597C32.3595 24.353 33.1749 23.5376 34.1816 23.5376C35.1884 23.5375 36.0037 24.3536 36.0037 25.3597Z" fill="white"/>
</svg>
