<svg width="43" height="43" viewBox="0 0 43 43" fill="none" xmlns="http://www.w3.org/2000/svg">
<path d="M41.2837 13.1301C39.0166 7.84472 35.1642 4.00079 29.8346 1.72776C27.1709 0.591703 24.3802 0.0114136 21.4647 0.0114136C18.5497 0.0114136 15.7795 0.586222 13.1187 1.72776C7.83331 3.99475 3.9638 7.83622 1.69274 13.1301C0.554714 15.7824 0 18.561 0 21.476C0 24.3916 0.554714 27.1932 1.69274 29.846C3.9638 35.1399 7.8338 39.0045 13.1187 41.272C15.78 42.4136 18.5496 42.9878 21.4647 42.9878C24.3797 42.9878 27.1709 42.4075 29.8342 41.272C35.1637 38.9989 39.0162 35.131 41.2837 29.846C42.4252 27.1847 43 24.3916 43 21.476C43 18.561 42.4257 15.7914 41.2837 13.1301ZM37.8515 30.9746C36.1638 33.869 33.8516 36.1652 30.9396 37.8629C28.0451 39.5507 24.8737 40.4018 21.4652 40.4018C18.9027 40.4018 16.4576 39.9083 14.1299 38.8972C11.8022 37.8865 9.79241 36.5579 8.11119 34.8772C6.42998 33.196 5.09185 31.1666 4.09125 28.8349C3.09361 26.5117 2.61014 24.039 2.61014 21.4761C2.61014 18.067 3.44773 14.9117 5.12599 12.0253C6.81023 9.12833 9.12289 6.82965 12.0144 5.13684C14.9053 3.44411 18.0561 2.59746 21.4647 2.59746C24.8737 2.59746 28.0446 3.44909 30.9391 5.13684C33.8511 6.83464 36.1583 9.13324 37.851 12.0252C39.5438 14.9167 40.3899 18.067 40.3899 21.476C40.3899 24.8852 39.5493 28.062 37.8515 30.9746Z" fill="white"/>
<path d="M22.8277 21.2885V9.11014C22.8277 8.38139 22.1927 7.79358 21.4639 7.79358C20.7823 7.79358 20.1709 8.38139 20.1709 9.11014V21.4765C20.1709 21.5001 20.218 21.5944 20.218 21.6647C20.1709 22.0879 20.2888 22.4406 20.5707 22.7229L27.6005 29.7523C28.0709 30.2227 28.9406 30.2227 29.4107 29.7523C29.9513 29.2117 29.9157 28.4272 29.4107 27.9186L22.8277 21.2885Z" fill="white"/>
</svg>
