<svg width="50" height="52" viewBox="0 0 50 52" fill="none" xmlns="http://www.w3.org/2000/svg">
<path d="M14.2307 26C14.2307 24.6946 13.1724 23.6364 11.867 23.6364H2.41247C1.10711 23.6364 0.0488281 24.6946 0.0488281 26C0.0488281 27.3054 1.10711 28.3636 2.41247 28.3636H11.867C13.1724 28.3636 14.2307 27.3054 14.2307 26Z" fill="#C5C5C5"/>
<path d="M47.3214 23.6364H42.5941C41.2887 23.6364 40.2305 24.6946 40.2305 26C40.2305 27.3054 41.2887 28.3636 42.5941 28.3636H47.3214C48.6267 28.3636 49.685 27.3054 49.685 26C49.685 24.6946 48.6267 23.6364 47.3214 23.6364Z" fill="#C5C5C5"/>
<path d="M26.0487 14.1818C27.3541 14.1818 28.4123 13.1235 28.4123 11.8182V2.36364C28.4123 1.05828 27.3541 0 26.0487 0C24.7433 0 23.6851 1.05828 23.6851 2.36364V11.8182C23.6851 13.1235 24.7433 14.1818 26.0487 14.1818Z" fill="#C5C5C5"/>
<path d="M26.0482 37.8182C24.7428 37.8182 23.6846 38.8765 23.6846 40.1818V49.6364C23.6846 50.9417 24.7428 52 26.0482 52C27.3536 52 28.4118 50.9417 28.4118 49.6364V40.1818C28.4118 38.8765 27.3536 37.8182 26.0482 37.8182Z" fill="#C5C5C5"/>
<path d="M11.0066 7.61519C10.0839 6.69211 8.58723 6.69227 7.66399 7.61519C6.74091 8.53827 6.74091 10.0348 7.66399 10.9578L14.3495 17.6435C14.811 18.105 15.4159 18.3359 16.0207 18.3359C16.6255 18.3359 17.2306 18.105 17.692 17.6436C18.615 16.7205 18.615 15.224 17.692 14.301L11.0066 7.61519Z" fill="#C5C5C5"/>
<path d="M37.7478 34.3568C36.8249 33.4339 35.3282 33.4339 34.4051 34.3568C33.4821 35.2799 33.4822 36.7764 34.4051 37.6994L41.0908 44.3847C41.5523 44.8463 42.1572 45.077 42.7622 45.077C43.3671 45.077 43.9721 44.8461 44.4334 44.3847C45.3565 43.4617 45.3565 41.9652 44.4334 41.0421L37.7478 34.3568Z" fill="#C5C5C5"/>
<path d="M14.3503 34.3568L7.66497 41.0421C6.74189 41.9652 6.74189 43.4617 7.66497 44.3847C8.12651 44.8463 8.73144 45.077 9.33637 45.077C9.94131 45.077 10.5462 44.8463 11.0076 44.3847L17.6929 37.6994C18.616 36.7763 18.616 35.2798 17.6929 34.3568C16.7699 33.4337 15.2732 33.4337 14.3503 34.3568Z" fill="#C5C5C5"/>
</svg>
