<svg width="15" height="15" viewBox="0 0 15 15" fill="none" xmlns="http://www.w3.org/2000/svg">
<g clip-path="url(#clip0)">
<path d="M7.64453 0.686523C3.79453 0.686523 0.644531 3.83652 0.644531 7.68652C0.644531 11.5365 3.79453 14.6865 7.64453 14.6865C11.4945 14.6865 14.6445 11.5365 14.6445 7.68652C14.6445 3.83652 11.4945 0.686523 7.64453 0.686523ZM7.64453 13.2865C4.56453 13.2865 2.04453 10.7665 2.04453 7.68652C2.04453 4.60652 4.56453 2.08652 7.64453 2.08652C10.7245 2.08652 13.2445 4.60652 13.2445 7.68652C13.2445 10.7665 10.7245 13.2865 7.64453 13.2865Z" fill="#4353FF"/>
<path d="M7.99482 4.18652H6.94482V8.38652L10.5848 10.6265L11.1448 9.71652L7.99482 7.82652V4.18652Z" fill="#4353FF"/>
</g>
<defs>
<clipPath id="clip0">
<rect width="14" height="14" fill="white" transform="translate(0.644531 0.686523)"/>
</clipPath>
</defs>
</svg>
