<svg width="21" height="20" viewBox="0 0 21 20" fill="none" xmlns="http://www.w3.org/2000/svg">
<path d="M5.75396 3.125H2.00396C1.313 3.125 0.753906 3.68529 0.753906 4.37497V18.1251C0.753906 18.8159 1.313 19.375 2.00396 19.375H5.754C6.44492 19.375 7.00393 18.8159 7.00393 18.1251V4.37497C7.00389 3.68529 6.44487 3.125 5.75396 3.125ZM2.62897 15.625C2.28347 15.625 2.00396 15.3455 2.00396 14.9998C2.00396 14.6545 2.28347 14.375 2.62897 14.375C2.97438 14.375 3.25389 14.6545 3.25389 14.9998C3.25389 15.3455 2.97438 15.625 2.62897 15.625ZM5.75396 8.12497H2.00396V6.87504H5.754V8.12497H5.75396ZM5.75396 5.62498H2.00396V4.37497H5.754V5.62498H5.75396Z" fill="white"/>
<path d="M13.8791 16.8751V15.6252H10.129V16.8751C9.43817 16.8751 8.87891 17.4343 8.87891 18.1253H15.1289C15.1289 17.4343 14.5699 16.8751 13.8791 16.8751Z" fill="white"/>
<path d="M19.5041 0.625H4.50396C3.81304 0.625 3.25391 1.18529 3.25391 1.87505H4.50396H8.254H19.5041V11.875H8.25396V14.3751H19.5041C20.1949 14.3751 20.7539 13.816 20.7539 13.1248V1.87501C20.7539 1.18525 20.1948 0.625 19.5041 0.625ZM12.004 13.7501C11.6585 13.7501 11.379 13.4707 11.379 13.1248C11.379 12.7795 11.6585 12.5 12.004 12.5C12.3495 12.5 12.629 12.7795 12.629 13.1248C12.629 13.4707 12.3495 13.7501 12.004 13.7501Z" fill="white"/>
</svg>
