<svg width="43" height="42" viewBox="0 0 43 42" fill="none" xmlns="http://www.w3.org/2000/svg">
<g opacity="0.5" clip-path="url(#clip0)">
<path d="M6.94148 6.18945C6.87922 6.1141 6.76445 6.10897 6.69481 6.17792C6.0416 6.82471 3.18191 9.84117 3.41537 12.8636C3.5522 15.3702 5.43489 16.8855 5.53981 16.9681C5.62184 17.0327 8.38629 19.9199 18.3037 24.7408C18.3294 24.7462 18.4228 24.7777 18.4774 24.7114C18.4774 24.7114 18.5543 24.6516 18.5142 24.5565C13.9566 14.8377 7.85153 7.29045 6.94148 6.18945Z" fill="#919191" fill-opacity="0.5"/>
<path d="M17.2793 27.3127C17.2471 27.205 17.1122 27.205 17.1122 27.205V27.1985L4.47664 27.6293C4.35015 27.6336 4.2755 27.7688 4.34014 27.875C5.75435 30.198 8.04072 31.9505 10.4146 31.3841C12.1111 30.9748 15.9514 28.3573 17.2185 27.4712H17.2152C17.3111 27.3811 17.2793 27.3127 17.2793 27.3127Z" fill="#919191" fill-opacity="0.5"/>
<path d="M17.4266 25.9963C12.1778 22.539 2.37698 17.3721 0.942502 16.6197C0.850545 16.5715 0.735537 16.6171 0.706088 16.7148C-0.177961 19.6471 1.11222 21.9808 1.11222 21.9808C2.51208 24.8701 5.18417 25.7463 5.18417 25.7463C6.42283 26.2399 7.6574 26.2724 7.6574 26.2724C7.84944 26.3071 15.3343 26.2778 17.341 26.268C17.4266 26.2659 17.4706 26.1849 17.4706 26.1849C17.5358 26.0844 17.4266 25.9963 17.4266 25.9963Z" fill="#919191" fill-opacity="0.5"/>
<path d="M16.2531 0.993368C12.8288 1.86101 10.9517 5.25119 12.0417 8.88089C12.0425 8.88353 12.0431 8.88593 12.0437 8.88866C13.1863 13.8309 18.7979 21.9485 20.0047 23.6514C20.0887 23.7352 20.1573 23.6997 20.1573 23.6997C20.2864 23.6677 20.2764 23.5444 20.2764 23.5444L20.2793 23.546C22.0002 6.7513 18.8607 1.38767 18.3883 0.687871C18.3538 0.636701 18.2928 0.609314 18.2305 0.617002C17.6085 0.694437 16.2531 0.993368 16.2531 0.993368Z" fill="#919191" fill-opacity="0.5"/>
<path d="M30.7709 4.88972C30.77 4.88732 30.7693 4.885 30.7685 4.88252C30.7371 4.77225 29.8609 1.79687 26.5003 0.998334C26.5003 0.998334 25.5775 0.770432 24.5707 0.620847C24.1546 0.559026 20.7407 6.39423 22.5043 23.5597C22.52 23.6722 22.6036 23.6984 22.6036 23.6984C22.7277 23.7471 22.7894 23.6297 22.7894 23.6297L22.7902 23.6314C24.0317 21.8818 29.6124 13.8029 30.7481 8.88449C30.7481 8.88441 31.3628 6.50394 30.7709 4.88972Z" fill="#919191" fill-opacity="0.5"/>
<path d="M25.6593 27.2094C25.6593 27.2094 25.6509 27.2105 25.6379 27.2138C25.5414 27.2385 25.4845 27.3444 25.528 27.4321C25.5359 27.4479 25.547 27.463 25.5626 27.4756V27.4772C26.7975 28.3427 30.5458 30.9009 32.3508 31.3957C32.3508 31.3957 35.5793 32.4698 38.442 27.8801C38.508 27.7741 38.4332 27.6374 38.3062 27.6331L25.6603 27.207L25.6593 27.2094Z" fill="#919191" fill-opacity="0.5"/>
<path d="M42.086 16.6927C42.0557 16.5937 41.9414 16.5455 41.8482 16.5946C40.4175 17.3482 30.6261 22.5318 25.3764 25.9853V25.9876C25.2337 26.0809 25.322 26.2658 25.4411 26.2658C27.4732 26.2702 35.1659 26.2799 35.358 26.2474C35.358 26.2474 36.3495 26.2039 37.5789 25.7461C37.5789 25.7461 40.315 24.8972 41.737 21.8633C41.737 21.8633 42.9473 19.4996 42.086 16.6927Z" fill="#919191" fill-opacity="0.5"/>
<path d="M39.3739 12.8471C39.5762 9.72176 36.745 6.801 36.0955 6.17439C36.0256 6.10696 35.9122 6.11289 35.8504 6.18752C34.9472 7.27978 28.8558 14.8064 24.3007 24.507H24.3028C24.23 24.6599 24.3918 24.7939 24.5123 24.7261C34.0255 20.1044 36.7751 17.3497 37.2509 16.9684C37.3503 16.8887 39.2666 15.3219 39.3739 12.8471Z" fill="#919191" fill-opacity="0.5"/>
<path d="M5.28029 37.5723H2.01553C1.97074 37.5723 1.93449 37.5369 1.93449 37.4932V34.9802C1.93449 34.9365 1.89823 34.9011 1.85344 34.9011H0.477531C0.432742 34.9011 0.396484 34.9365 0.396484 34.9802V41.4212C0.396484 41.4649 0.432742 41.5003 0.477531 41.5003H1.85336C1.89815 41.5003 1.9344 41.4649 1.9344 41.4212V38.8256C1.9344 38.7819 1.97066 38.7465 2.01545 38.7465H5.28021C5.32499 38.7465 5.36125 38.7819 5.36125 38.8256V41.4212C5.36125 41.4649 5.39751 41.5003 5.4423 41.5003H6.82264C6.86742 41.5003 6.90368 41.4649 6.90368 41.4212V34.9802C6.90368 34.9365 6.86742 34.9011 6.82264 34.9011H5.44238C5.39759 34.9011 5.36133 34.9365 5.36133 34.9802V37.4932C5.36133 37.5368 5.32508 37.5723 5.28029 37.5723Z" fill="#919191" fill-opacity="0.5"/>
<path d="M12.9844 38.8553C12.9844 40.0197 12.6192 40.5046 11.3449 40.5046C10.0709 40.5046 9.69441 40.0197 9.69441 38.8553V34.9798C9.69441 34.936 9.65816 34.9006 9.61337 34.9006H8.24755C8.20276 34.9006 8.1665 34.936 8.1665 34.9798V38.889C8.1665 39.7261 8.24657 40.3068 8.58298 40.661C9.18106 41.3091 10.0709 41.5699 11.345 41.5699C12.6193 41.5699 13.4923 41.309 14.0949 40.661C14.4224 40.3143 14.5246 39.7327 14.5246 38.889V34.9798C14.5246 34.936 14.4883 34.9006 14.4435 34.9006H13.0656C13.0208 34.9006 12.9845 34.936 12.9845 34.9798L12.9844 38.8553Z" fill="#919191" fill-opacity="0.5"/>
<path d="M17.9007 34.9464L14.8766 41.3874C14.852 41.4399 14.8912 41.4995 14.9503 41.4995H16.3992C16.4322 41.4995 16.4619 41.48 16.4743 41.4501L17.0853 39.978C17.0977 39.9481 17.1274 39.9286 17.1604 39.9286H20.2294C20.262 39.9286 20.2916 39.9477 20.3042 39.9772L20.9364 41.451C20.949 41.4804 20.9785 41.4996 21.0112 41.4996H22.5445C22.6037 41.4996 22.6429 41.4398 22.6181 41.3873L19.5755 34.9464C19.5623 34.9183 19.5335 34.9004 19.5019 34.9004H17.9743C17.9427 34.9002 17.9139 34.9183 17.9007 34.9464ZM17.6511 38.6429L18.6026 36.393C18.63 36.3282 18.7239 36.3275 18.7521 36.3921L19.7373 38.642C19.7602 38.6942 19.7209 38.7523 19.6627 38.7523H17.726C17.6684 38.7523 17.6292 38.695 17.6511 38.6429Z" fill="#919191" fill-opacity="0.5"/>
<path d="M29.8658 39.7304L28.3231 34.9555C28.3124 34.9226 28.2812 34.9001 28.2457 34.9001H26.5517C26.5152 34.9001 26.4832 34.924 26.4735 34.9584L25.1357 39.7196C25.1144 39.7954 25.0053 39.7979 24.9804 39.7232L23.3886 34.9548C23.3777 34.9222 23.3466 34.9001 23.3115 34.9001H21.8341C21.7779 34.9001 21.7388 34.9545 21.7578 35.0062L24.1373 41.4472C24.1488 41.4786 24.1794 41.4995 24.2136 41.4995H25.9689C26.0056 41.4995 26.0377 41.4755 26.0472 41.441L27.3222 36.8363C27.3434 36.7597 27.454 36.7578 27.4779 36.8335L28.9369 41.4437C28.9474 41.4769 28.9788 41.4995 29.0143 41.4995H30.784C30.8189 41.4995 30.8499 41.4778 30.8609 41.4455L33.0657 35.0045C33.0833 34.9532 33.0442 34.9003 32.9888 34.9003H31.5852C31.5495 34.9003 31.518 34.9231 31.5076 34.9564L30.0208 39.7298C29.9975 39.804 29.8898 39.8046 29.8658 39.7304Z" fill="#919191" fill-opacity="0.5"/>
<path d="M33.4321 38.3204C33.4321 39.5152 33.7986 40.3806 34.5526 40.9198C35.2654 41.4329 35.9485 41.4994 36.8347 41.4994H39.3519C39.3967 41.4994 39.4329 41.464 39.4329 41.4202V40.4304C39.4329 40.3867 39.3967 40.3513 39.3519 40.3513H36.907C35.7245 40.3513 35.1997 39.9364 35.1663 38.8149C35.165 38.7706 35.2021 38.7336 35.2476 38.7336H39.3519C39.3967 38.7336 39.4329 38.6982 39.4329 38.6545V37.6615C39.4329 37.6177 39.3967 37.5824 39.3519 37.5824H35.2627C35.2155 37.5824 35.1774 37.5426 35.1816 37.4967C35.2703 36.5198 35.8267 36.0514 36.907 36.0514H39.3519C39.3967 36.0514 39.4329 36.016 39.4329 35.9723V34.9793C39.4329 34.9355 39.3967 34.9001 39.3519 34.9001H36.8754C34.5219 34.9001 33.4321 35.9884 33.4321 38.3204Z" fill="#919191" fill-opacity="0.5"/>
<path d="M40.7886 34.9793V41.4198C40.7886 41.4635 40.8248 41.4989 40.8696 41.4989H42.3141C42.3589 41.4989 42.3952 41.4635 42.3952 41.4198V34.9793C42.3952 34.9355 42.3589 34.9001 42.3141 34.9001H40.8696C40.8248 34.9001 40.7886 34.9356 40.7886 34.9793Z" fill="#919191" fill-opacity="0.5"/>
</g>
<defs>
<clipPath id="clip0">
<rect width="42" height="41" fill="white" transform="translate(0.396484 0.592773)"/>
</clipPath>
</defs>
</svg>
