<svg width="26" height="17" viewBox="0 0 26 17" fill="none" xmlns="http://www.w3.org/2000/svg">
<path d="M25.8365 14.0793C25.8126 14.0516 25.7774 14.0352 25.7405 14.0352H0.994081C0.957115 14.0352 0.922202 14.0513 0.898071 14.0793C0.87394 14.107 0.863158 14.1443 0.868549 14.181C0.872143 14.2041 1.2454 16.4955 4.14241 16.4955H22.5921C25.4889 16.4955 25.8621 14.2041 25.866 14.181C25.8711 14.1443 25.8603 14.107 25.8365 14.0793ZM15.2283 15.693H11.506V14.8371H15.2283V15.693Z" fill="white"/>
<path d="M3.5647 13.1444H23.1699C23.4533 13.1444 23.6833 12.9144 23.6833 12.631V0.589598C23.6833 0.306187 23.4533 0.0761719 23.1699 0.0761719H3.5647C3.28128 0.0761719 3.05127 0.306187 3.05127 0.589598V12.631C3.05127 12.9144 3.28128 13.1444 3.5647 13.1444ZM4.84826 1.87316H21.8863V11.3474H4.84826V1.87316Z" fill="white"/>
</svg>
