<svg width="23" height="19" viewBox="0 0 23 19" fill="none" xmlns="http://www.w3.org/2000/svg">
<path d="M21.222 0.00170898H2.51194C1.60489 0.00170898 0.867188 0.739807 0.867188 1.64693V12.0848V12.9381V14.0099C0.867188 14.9174 1.60489 15.6547 2.51194 15.6547H9.90686C9.89876 16.2055 9.83988 16.9517 9.60606 17.4765H8.33381C8.03174 17.4765 7.78724 17.7214 7.78724 18.0231C7.78724 18.3256 8.03174 18.5697 8.33381 18.5697H15.4006C15.7027 18.5697 15.9472 18.3256 15.9472 18.0231C15.9472 17.7214 15.7027 17.4765 15.4006 17.4765H14.1279C13.8946 16.9521 13.8348 16.2055 13.8271 15.6547H21.2224C22.1295 15.6547 22.8672 14.917 22.8672 14.0099V12.9381V12.0847V1.64693C22.8667 0.739807 22.129 0.00170898 21.222 0.00170898ZM22.0134 14.0099C22.0134 14.4464 21.6585 14.8014 21.222 14.8014H2.51194C2.07544 14.8014 1.72047 14.4464 1.72047 14.0099V12.9381H22.0138V14.0098H22.0134V14.0099ZM1.72053 12.0852V1.64693C1.72053 1.21043 2.07551 0.855056 2.51201 0.855056H21.222C21.6585 0.855056 22.0135 1.2105 22.0135 1.64693V12.0848H1.72053V12.0852Z" fill="white"/>
</svg>
