<svg width="13" height="17" viewBox="0 0 13 17" fill="none" xmlns="http://www.w3.org/2000/svg">
<path d="M6.85284 0.778809C3.55251 0.778809 0.867188 3.42135 0.867188 6.66943C0.867188 7.51665 1.0434 8.32556 1.39067 9.07388C2.88725 12.2966 5.75661 15.6991 6.60058 16.665C6.66381 16.7372 6.756 16.7788 6.85301 16.7788C6.95002 16.7788 7.0422 16.7372 7.10543 16.665C7.94907 15.6992 10.8184 12.2969 12.3155 9.07388C12.6629 8.32556 12.839 7.51665 12.839 6.66943C12.8387 3.42135 10.1533 0.778809 6.85284 0.778809ZM6.85284 9.72903C5.13845 9.72903 3.74354 8.35634 3.74354 6.66926C3.74354 4.98202 5.13845 3.60933 6.85284 3.60933C8.56724 3.60933 9.96215 4.98202 9.96215 6.66926C9.96231 8.35634 8.5674 9.72903 6.85284 9.72903Z" fill="#4353FF"/>
</svg>
