<svg width="16" height="17" viewBox="0 0 16 17" fill="none" xmlns="http://www.w3.org/2000/svg">
<path fill-rule="evenodd" clip-rule="evenodd" d="M15.285 14.5256L11.9829 11.0497C11.9653 11.0313 11.9447 11.0184 11.9264 11.0012C12.5761 9.96368 12.9554 8.72178 12.9554 7.38624C12.9554 3.75322 10.1575 0.808105 6.7062 0.808105C3.25489 0.808105 0.457031 3.75322 0.457031 7.38617C0.457031 11.0191 3.25483 13.9642 6.70614 13.9642C7.97496 13.9642 9.15471 13.5651 10.1403 12.8811C10.1567 12.9004 10.1689 12.922 10.1864 12.9405L13.4886 16.4165C13.9846 16.9386 14.7889 16.9386 15.285 16.4165C15.781 15.8943 15.781 15.0478 15.285 14.5256ZM6.7062 11.6838C4.45127 11.6838 2.62336 9.75972 2.62336 7.38617C2.62336 5.01257 4.45133 3.08845 6.7062 3.08845C8.961 3.08845 10.789 5.01263 10.789 7.38617C10.789 9.75972 8.961 11.6838 6.7062 11.6838Z" fill="black"/>
</svg>
