<svg width="194" height="110" viewBox="0 0 194 110" fill="none" xmlns="http://www.w3.org/2000/svg">
<path d="M59.0519 88.1592H189.37C191.407 88.1592 193.061 86.5038 193.061 84.4653V4.59391C193.061 2.5554 191.407 0.9 189.37 0.9H59.0519C57.0149 0.9 55.3609 2.5554 55.3609 4.59391V84.4653C55.3609 86.5038 57.0149 88.1592 59.0519 88.1592ZM55.9781 4.59391C55.9781 2.8897 57.3636 1.51755 59.0519 1.51755H189.37C191.073 1.51755 192.444 2.904 192.444 4.59391V84.4653C192.444 86.1695 191.059 87.5417 189.37 87.5417H59.0519C57.3493 87.5417 55.9781 86.1552 55.9781 84.4653V4.59391Z" fill="#B9B9B9" stroke="#B9B9B9" stroke-width="0.2"/>
<path d="M185.51 77.4223H185.61V77.3223V7.71069V7.61069H185.51H62.6123H62.5123V7.71069V77.3223V77.4223H62.6123H185.51ZM184.993 76.8047H63.1295V8.22824H184.993V76.8047Z" fill="#B9B9B9" stroke="#B9B9B9" stroke-width="0.2"/>
<path d="M96.4868 105.938L96.4854 105.946V105.954V105.984C96.4854 106.814 96.7135 107.572 97.0874 108.126C97.4609 108.679 97.9875 109.037 98.5821 109.037H149.839C150.433 109.037 150.96 108.683 151.334 108.133C151.708 107.584 151.936 106.829 151.936 105.999V105.984V105.976L151.935 105.968L150.446 96.8344C150.444 96.0075 150.217 95.256 149.844 94.7079C149.47 94.1584 148.943 93.8048 148.349 93.8048H100.072C99.478 93.8048 98.9513 94.1584 98.5776 94.7079C98.2048 95.256 97.977 96.0075 97.9755 96.8344L96.4868 105.938ZM149.829 96.8873V96.8954L149.83 96.9034L151.319 106.021C151.31 106.68 151.132 107.285 150.857 107.722C150.58 108.164 150.216 108.419 149.839 108.419H98.5821C98.2053 108.419 97.8374 108.163 97.5584 107.722C97.282 107.285 97.1041 106.68 97.1027 106.022L98.5914 96.9183L98.5927 96.9103V96.9022V96.8724C98.5927 96.203 98.771 95.588 99.0487 95.1433C99.328 94.6961 99.6959 94.4373 100.072 94.4373H148.349C148.733 94.4373 149.101 94.6964 149.378 95.1431C149.654 95.5876 149.829 96.2026 149.829 96.8724V96.8873Z" fill="#B9B9B9" stroke="#B9B9B9" stroke-width="0.2"/>
<path d="M99.0402 87.8506V87.7506H98.9402H98.5229H98.4229V87.8506V94.7252V94.8252H98.5229H98.9402H99.0402V94.7252V87.8506Z" fill="#B9B9B9" stroke="#B9B9B9" stroke-width="0.2"/>
<path d="M149.85 87.8506V87.7506H149.75H149.333H149.233V87.8506V94.5761V94.6761H149.333H149.75H149.85V94.5761V87.8506Z" fill="#B9B9B9" stroke="#B9B9B9" stroke-width="0.2"/>
<path d="M3.74166 100.537H47.8466C49.4218 100.537 50.6883 99.2689 50.6883 97.6927V3.7439C50.6883 2.18294 49.4221 0.9 47.8466 0.9H3.74166C2.18178 0.9 0.9 2.16732 0.9 3.7439V97.6927C0.9 99.2537 2.16617 100.537 3.74166 100.537ZM1.51721 3.7439C1.51721 2.51658 2.51554 1.51755 3.74166 1.51755H47.8466C49.0728 1.51755 50.0711 2.51658 50.0711 3.7439V97.6927C50.0711 98.92 49.0728 99.919 47.8466 99.919H3.74166C2.51554 99.919 1.51721 98.92 1.51721 97.6927V3.7439Z" fill="#B9B9B9" stroke="#B9B9B9" stroke-width="0.2"/>
<path d="M1.37256 98.9049H1.27256V99.0049V106.938C1.27256 108.097 2.21127 109.037 3.3692 109.037H48.2192C49.3771 109.037 50.3158 108.097 50.3158 106.938V99.0049V98.9049H50.2158H49.7986H49.6986V99.0049V106.938C49.6986 107.762 49.0287 108.419 48.2192 108.419H3.3692C2.546 108.419 1.88977 107.749 1.88977 106.938V99.0049V98.9049H1.78977H1.37256Z" fill="#B9B9B9" stroke="#B9B9B9" stroke-width="0.2"/>
<path d="M6.72125 54.1586H44.8661C46.024 54.1586 46.9627 53.219 46.9627 52.0603V6.57713C46.9627 5.41846 46.024 4.47886 44.8661 4.47886H6.72125C5.56332 4.47886 4.62461 5.41846 4.62461 6.57713V52.0603C4.62461 53.219 5.56332 54.1586 6.72125 54.1586ZM5.24182 6.57713C5.24182 5.75306 5.91172 5.09641 6.72125 5.09641H44.8661C45.6893 5.09641 46.3455 5.76674 46.3455 6.57713V52.0603C46.3455 52.8843 45.6756 53.541 44.8661 53.541H6.72125C5.89805 53.541 5.24182 52.8707 5.24182 52.0603V6.57713Z" fill="#B9B9B9" stroke="#B9B9B9" stroke-width="0.2"/>
<path d="M44.1152 19.8024L44.1155 19.7946V19.7868V18.4894C44.1155 17.7514 43.5046 17.1394 42.7661 17.1394H8.83809C8.09965 17.1394 7.48877 17.7514 7.48877 18.4894V19.7868C7.48877 20.5248 8.09965 21.1368 8.83809 21.1368H42.7512C43.4869 21.1368 44.092 20.5459 44.1152 19.8024Z" stroke="#B9B9B9"/>
<path d="M46.7555 10.8423V10.7423H46.6555H4.93457H4.83457V10.8423V11.2598V11.3598H4.93457H46.6555H46.7555V11.2598V10.8423Z" fill="#B9B9B9" stroke="#B9B9B9" stroke-width="0.2"/>
<path d="M46.7555 22.9211V22.8211H46.6555H4.93457H4.83457V22.9211V23.3387V23.4387H4.93457H46.6555H46.7555V23.3387V22.9211Z" fill="#B9B9B9" stroke="#B9B9B9" stroke-width="0.2"/>
<path d="M46.7555 35.1499V35.0499H46.6555H4.93457H4.83457V35.1499V35.5675V35.6675H4.93457H46.6555H46.7555V35.5675V35.1499Z" fill="#B9B9B9" stroke="#B9B9B9" stroke-width="0.2"/>
<path d="M46.7555 44.2463V44.1463H46.6555H4.93457H4.83457V44.2463V44.6639V44.7639H4.93457H46.6555H46.7555V44.6639V44.2463Z" fill="#B9B9B9" stroke="#B9B9B9" stroke-width="0.2"/>
<path d="M23.8575 75.3345H27.7315C28.6064 75.3345 29.3067 74.6335 29.3067 73.7581V72.2669C29.3067 71.4071 28.607 70.6905 27.7315 70.6905H23.8575C22.9982 70.6905 22.2823 71.3909 22.2823 72.2669V73.7581C22.2823 74.6179 22.982 75.3345 23.8575 75.3345ZM22.8995 72.2669C22.8995 71.7404 23.3316 71.3081 23.8575 71.3081H27.7315C28.2573 71.3081 28.6895 71.7404 28.6895 72.2669V73.7581C28.6895 74.2846 28.2573 74.7169 27.7315 74.7169H23.8575C23.3316 74.7169 22.8995 74.2846 22.8995 73.7581V72.2669Z" fill="#B9B9B9" stroke="#B9B9B9" stroke-width="0.2"/>
<path d="M13.6651 10.0178H25.9281C26.341 10.0178 26.6688 9.68958 26.6688 9.27653V8.33704C26.6688 7.92248 26.3246 7.5958 25.9281 7.5958H13.6651C13.2507 7.5958 12.9244 7.94042 12.9244 8.33704V9.27653C12.9244 9.69108 13.2686 10.0178 13.6651 10.0178ZM13.5565 8.33704C13.5565 8.27289 13.6012 8.22826 13.6651 8.22826H25.9281C25.992 8.22826 26.0367 8.27289 26.0367 8.33704V9.27653C26.0367 9.34067 25.992 9.3853 25.9281 9.3853H13.6651C13.6012 9.3853 13.5565 9.34067 13.5565 9.27653V8.33704Z" fill="#B9B9B9" stroke="#B9B9B9" stroke-width="0.2"/>
<path d="M36.5065 10.0177H36.6065V9.91774V7.71069V7.61069H36.5065H29.5332H29.4332V7.71069V9.91774V10.0177H29.5332H36.5065ZM35.9893 9.40019H30.0504V8.22824H35.9893V9.40019Z" fill="#B9B9B9" stroke="#B9B9B9" stroke-width="0.2"/>
<path d="M36.5065 7.18427H36.6065V7.08427V5.77197V5.67197H36.5065H29.5332H29.4332V5.77197V7.08427V7.18427H29.5332H36.5065ZM35.9893 6.56672H30.0504V6.28952H35.9893V6.56672Z" fill="#B9B9B9" stroke="#B9B9B9" stroke-width="0.2"/>
<path d="M26.4952 7.18427H26.5952V7.08427V5.77197V5.67197H26.4952H13.1147H13.0147V5.77197V7.08427V7.18427H13.1147H26.4952ZM25.978 6.56672H13.632V6.28952H25.978V6.56672Z" fill="#B9B9B9" stroke="#B9B9B9" stroke-width="0.2"/>
</svg>
