<svg width="81" height="163" viewBox="0 0 81 163" fill="none" xmlns="http://www.w3.org/2000/svg">
<path fill-rule="evenodd" clip-rule="evenodd" d="M12.6249 1.11588C6.67423 1.11588 1.85025 5.93986 1.85025 11.8905V150.868C1.85025 156.818 6.67423 161.642 12.6249 161.642H69.2382C75.1888 161.642 80.0128 156.818 80.0128 150.868V11.8905C80.0128 5.93986 75.1888 1.11588 69.2382 1.11588H12.6249ZM1.49756 11.8905C1.49756 5.74507 6.47945 0.763184 12.6249 0.763184H69.2382C75.3836 0.763184 80.3655 5.74507 80.3655 11.8905V150.868C80.3655 157.013 75.3836 161.995 69.2382 161.995H12.6249C6.47945 161.995 1.49756 157.013 1.49756 150.868V11.8905Z" fill="#222221" stroke="#858585" stroke-width="0.2" stroke-miterlimit="10"/>
<path fill-rule="evenodd" clip-rule="evenodd" d="M7.40674 19.6689C6.67818 19.6689 6.08756 20.2595 6.08756 20.988V142.126C6.08756 142.854 6.67818 143.445 7.40674 143.445H74.7055C75.4341 143.445 76.0247 142.854 76.0247 142.126V20.988C76.0247 20.2595 75.4341 19.6689 74.7055 19.6689H7.40674ZM5.73486 20.988C5.73486 20.0647 6.48339 19.3162 7.40674 19.3162H74.7055C75.6289 19.3162 76.3774 20.0647 76.3774 20.988V142.126C76.3774 143.049 75.6289 143.798 74.7055 143.798H7.40674C6.48339 143.798 5.73486 143.049 5.73486 142.126V20.988Z" fill="#222221" stroke="#858585" stroke-width="0.2" stroke-miterlimit="10"/>
<path fill-rule="evenodd" clip-rule="evenodd" d="M40.5559 146.54C37.6248 146.54 35.2487 148.916 35.2487 151.847C35.2487 154.778 37.6248 157.154 40.5559 157.154C43.4871 157.154 45.8632 154.778 45.8632 151.847C45.8632 148.916 43.4871 146.54 40.5559 146.54ZM34.896 151.847C34.896 148.721 37.43 146.187 40.5559 146.187C43.6819 146.187 46.2159 148.721 46.2159 151.847C46.2159 154.973 43.6819 157.507 40.5559 157.507C37.43 157.507 34.896 154.973 34.896 151.847Z" fill="#222221" stroke="#858585" stroke-width="0.2" stroke-miterlimit="10"/>
<path fill-rule="evenodd" clip-rule="evenodd" d="M35.7391 10.4992C35.4681 10.4992 35.2487 10.7186 35.2487 10.989C35.2487 11.2593 35.4681 11.4788 35.7391 11.4788H45.3728C45.6438 11.4788 45.8632 11.2593 45.8632 10.989C45.8632 10.7186 45.6438 10.4992 45.3728 10.4992H35.7391ZM34.896 10.989C34.896 10.5235 35.2736 10.1465 35.7391 10.1465H45.3728C45.8383 10.1465 46.2159 10.5235 46.2159 10.989C46.2159 11.4544 45.8383 11.8314 45.3728 11.8314H35.7391C35.2736 11.8314 34.896 11.4544 34.896 10.989Z" fill="#222221" stroke="#858585" stroke-width="0.2" stroke-miterlimit="10"/>
<path fill-rule="evenodd" clip-rule="evenodd" d="M29.7206 10.1449C29.1979 10.1449 28.7741 10.5687 28.7741 11.0915C28.7741 11.6142 29.1979 12.038 29.7206 12.038C30.2434 12.038 30.6672 11.6142 30.6672 11.0915C30.6672 10.5687 30.2434 10.1449 29.7206 10.1449ZM28.4214 11.0915C28.4214 10.3739 29.0031 9.79224 29.7206 9.79224C30.4382 9.79224 31.0199 10.3739 31.0199 11.0915C31.0199 11.809 30.4382 12.3907 29.7206 12.3907C29.0031 12.3907 28.4214 11.809 28.4214 11.0915Z" fill="#222221" stroke="#858585" stroke-width="0.2" stroke-miterlimit="10"/>
<path fill-rule="evenodd" clip-rule="evenodd" d="M40.8075 5.65836C40.2848 5.65836 39.861 6.08214 39.861 6.6049C39.861 7.12767 40.2848 7.55145 40.8075 7.55145C41.3303 7.55145 41.7541 7.12767 41.7541 6.6049C41.7541 6.08214 41.3303 5.65836 40.8075 5.65836ZM39.5083 6.6049C39.5083 5.88735 40.09 5.30566 40.8075 5.30566C41.5251 5.30566 42.1068 5.88735 42.1068 6.6049C42.1068 7.32246 41.5251 7.90415 40.8075 7.90415C40.09 7.90415 39.5083 7.32246 39.5083 6.6049Z" fill="#222221" stroke="#858585" stroke-width="0.2" stroke-miterlimit="10"/>
<path d="M13.0109 139.977L13.0111 139.977L20.2205 139.977C20.2206 139.977 20.2207 139.977 20.2208 139.977C20.6007 139.976 20.9646 139.824 21.2329 139.555C21.5013 139.286 21.6522 138.921 21.6525 138.541V131.332C21.6522 130.951 21.5007 130.586 21.2313 130.317C20.9619 130.048 20.5966 129.896 20.2158 129.896L13.0062 129.896C12.6256 129.897 12.2606 130.048 11.9915 130.317C11.7224 130.586 11.571 130.951 11.5707 131.332C11.5707 131.332 11.5707 131.332 11.5707 131.332L11.4707 131.332L13.0109 139.977ZM13.0109 139.977C12.822 139.977 12.6349 139.941 12.4603 139.869C12.2856 139.797 12.1269 139.691 11.9931 139.558C11.8594 139.424 11.7532 139.266 11.6807 139.092C11.6082 138.917 11.5709 138.73 11.5707 138.541L13.0109 139.977ZM13.0111 130.025L13.011 130.025C12.6633 130.026 12.33 130.164 12.0842 130.41C11.8383 130.656 11.7001 130.989 11.6997 131.337V131.337L11.6997 138.546L11.6997 138.547C11.7001 138.894 11.8383 139.228 12.0842 139.473C12.33 139.719 12.6633 139.858 13.011 139.858H13.0111H20.2208H20.2209C20.5686 139.858 20.9019 139.719 21.1477 139.473C21.3935 139.228 21.5318 138.894 21.5322 138.547V138.546V131.337V131.337C21.5318 130.989 21.3935 130.656 21.1477 130.41C20.9019 130.164 20.5686 130.026 20.2209 130.025H20.2208L13.0111 130.025Z" fill="#222221" stroke="#858585" stroke-width="0.2"/>
<path d="M29.3307 139.977L29.3309 139.977L36.5403 139.977C36.5404 139.977 36.5405 139.977 36.5406 139.977C36.9205 139.976 37.2844 139.824 37.5527 139.555C37.8211 139.286 37.972 138.921 37.9723 138.541V131.332C37.972 130.951 37.8205 130.586 37.5511 130.317C37.2817 130.048 36.9165 129.896 36.5356 129.896L29.326 129.896C28.9454 129.897 28.5805 130.048 28.3113 130.317C28.0422 130.586 27.8908 130.951 27.8905 131.332C27.8905 131.332 27.8905 131.332 27.8905 131.332L27.7905 131.332L29.3307 139.977ZM29.3307 139.977C29.1418 139.977 28.9547 139.941 28.7801 139.869C28.6055 139.797 28.4467 139.691 28.313 139.558C28.1792 139.424 28.073 139.266 28.0006 139.092C27.9281 138.917 27.8907 138.73 27.8905 138.541L29.3307 139.977ZM29.3309 130.025L29.3308 130.025C28.9832 130.026 28.6498 130.164 28.404 130.41C28.1582 130.656 28.0199 130.989 28.0195 131.337V131.337L28.0195 138.546L28.0195 138.547C28.0199 138.894 28.1582 139.228 28.404 139.473C28.6498 139.719 28.9832 139.858 29.3308 139.858H29.3309H36.5406H36.5407C36.8884 139.858 37.2217 139.719 37.4675 139.473C37.7134 139.228 37.8516 138.894 37.852 138.547V138.546V131.337V131.337C37.8516 130.989 37.7134 130.656 37.4675 130.41C37.2217 130.164 36.8884 130.026 36.5407 130.025H36.5406L29.3309 130.025Z" fill="#222221" stroke="#858585" stroke-width="0.2"/>
<path d="M44.9117 139.977L44.912 139.977L52.1213 139.977C52.1214 139.977 52.1215 139.977 52.1216 139.977C52.5015 139.976 52.8655 139.824 53.1338 139.555C53.4022 139.286 53.553 138.921 53.5533 138.541V131.332C53.553 130.951 53.4015 130.586 53.1321 130.317C52.8628 130.048 52.4975 129.896 52.1167 129.896L44.9071 129.896C44.5265 129.897 44.1615 130.048 43.8924 130.317C43.6232 130.586 43.4719 130.951 43.4716 131.332C43.4716 131.332 43.4716 131.332 43.4716 131.332L43.3716 131.332L44.9117 139.977ZM44.9117 139.977C44.7229 139.977 44.5358 139.941 44.3611 139.869C44.1865 139.797 44.0278 139.691 43.894 139.558C43.7603 139.424 43.6541 139.266 43.5816 139.092C43.5091 138.917 43.4717 138.73 43.4716 138.541L44.9117 139.977ZM44.912 130.025L44.9119 130.025C44.5642 130.026 44.2309 130.164 43.9851 130.41C43.7392 130.656 43.601 130.989 43.6006 131.337V131.337L43.6006 138.546L43.6006 138.547C43.601 138.894 43.7392 139.228 43.9851 139.473C44.2309 139.719 44.5642 139.858 44.9119 139.858H44.912H52.1217H52.1218C52.4694 139.858 52.8028 139.719 53.0486 139.473C53.2944 139.228 53.4327 138.894 53.433 138.547V138.546V131.337V131.337C53.4327 130.989 53.2944 130.656 53.0486 130.41C52.8028 130.164 52.4694 130.026 52.1218 130.025H52.1217L44.912 130.025Z" fill="#222221" stroke="#858585" stroke-width="0.2"/>
<path d="M61.2413 139.977L61.2416 139.977L68.4509 139.977C68.451 139.977 68.4511 139.977 68.4512 139.977C68.8311 139.976 69.1951 139.824 69.4634 139.555C69.7318 139.286 69.8826 138.921 69.8829 138.541V131.332C69.8826 130.951 69.7311 130.586 69.4617 130.317C69.1923 130.048 68.8271 129.896 68.4463 129.896L61.2367 129.896C60.856 129.897 60.4911 130.048 60.222 130.317C59.9528 130.586 59.8015 130.951 59.8012 131.332C59.8012 131.332 59.8012 131.332 59.8012 131.332L59.7012 131.332L61.2413 139.977ZM61.2413 139.977C61.0525 139.977 60.8654 139.941 60.6907 139.869C60.5161 139.797 60.3574 139.691 60.2236 139.558C60.0898 139.424 59.9837 139.266 59.9112 139.092C59.8387 138.917 59.8013 138.73 59.8012 138.541L61.2413 139.977ZM61.2416 130.025L61.2415 130.025C60.8938 130.026 60.5605 130.164 60.3146 130.41C60.0688 130.656 59.9305 130.989 59.9302 131.337V131.337L59.9302 138.546L59.9302 138.547C59.9305 138.894 60.0688 139.228 60.3146 139.473C60.5605 139.719 60.8938 139.858 61.2415 139.858H61.2416H68.4513H68.4514C68.799 139.858 69.1323 139.719 69.3782 139.473C69.624 139.228 69.7623 138.894 69.7626 138.547V138.546V131.337V131.337C69.7623 130.989 69.624 130.656 69.3782 130.41C69.1323 130.164 68.799 130.026 68.4514 130.025H68.4513L61.2416 130.025Z" fill="#222221" stroke="#858585" stroke-width="0.2"/>
<path fill-rule="evenodd" clip-rule="evenodd" d="M1.11608 20.6662C0.903737 20.6662 0.731602 20.8383 0.731602 21.0506V25.288C0.731602 25.5003 0.903737 25.6725 1.11608 25.6725C1.32842 25.6725 1.50055 25.5003 1.50055 25.288V21.0506C1.50055 20.8383 1.32842 20.6662 1.11608 20.6662ZM0.378906 21.0506C0.378906 20.6435 0.708949 20.3135 1.11608 20.3135C1.52321 20.3135 1.85325 20.6435 1.85325 21.0506V25.288C1.85325 25.6951 1.52321 26.0252 1.11608 26.0252C0.708949 26.0252 0.378906 25.6951 0.378906 25.288V21.0506Z" fill="#222221" stroke="#858585" stroke-width="0.2" stroke-miterlimit="10"/>
<path fill-rule="evenodd" clip-rule="evenodd" d="M1.11608 32.2565C0.903737 32.2565 0.731602 32.4286 0.731602 32.641V41.6142C0.731602 41.8265 0.903737 41.9986 1.11608 41.9986C1.32842 41.9986 1.50055 41.8265 1.50055 41.6142V32.641C1.50055 32.4286 1.32842 32.2565 1.11608 32.2565ZM0.378906 32.641C0.378906 32.2339 0.708949 31.9038 1.11608 31.9038C1.52321 31.9038 1.85325 32.2339 1.85325 32.641V41.6142C1.85325 42.0213 1.52321 42.3513 1.11608 42.3513C0.708949 42.3513 0.378906 42.0213 0.378906 41.6142V32.641Z" fill="#222221" stroke="#858585" stroke-width="0.2" stroke-miterlimit="10"/>
<path fill-rule="evenodd" clip-rule="evenodd" d="M1.11608 45.0932C0.903737 45.0932 0.731602 45.2653 0.731602 45.4776V54.4508C0.731602 54.6632 0.903737 54.8353 1.11608 54.8353C1.32842 54.8353 1.50055 54.6632 1.50055 54.4508V45.4776C1.50055 45.2653 1.32842 45.0932 1.11608 45.0932ZM0.378906 45.4776C0.378906 45.0705 0.708949 44.7405 1.11608 44.7405C1.52321 44.7405 1.85325 45.0705 1.85325 45.4776V54.4508C1.85325 54.858 1.52321 55.188 1.11608 55.188C0.708949 55.188 0.378906 54.858 0.378906 54.4508V45.4776Z" fill="#222221" stroke="#858585" stroke-width="0.2" stroke-miterlimit="10"/>
</svg>
