<svg width="131" height="152" viewBox="0 0 131 152" fill="none" xmlns="http://www.w3.org/2000/svg">
<path d="M35.2966 131.201H35.3203L35.3414 131.191L35.3637 131.18C35.3687 131.178 35.3773 131.176 35.3904 131.172C35.412 131.166 35.4431 131.158 35.484 131.147C35.5656 131.126 35.6858 131.095 35.8449 131.056C36.163 130.979 36.6363 130.87 37.2674 130.741C38.5295 130.481 40.4225 130.138 42.9664 129.795C48.0543 129.111 55.7459 128.429 66.2012 128.429C77.4023 128.429 85.3915 129.096 90.5905 129.765C93.1899 130.1 95.0918 130.436 96.3489 130.69C96.9774 130.817 97.4447 130.923 97.7574 130.999C97.8213 131.014 97.8787 131.028 97.9298 131.041C98.0036 131.059 98.064 131.075 98.1111 131.087C98.151 131.098 98.1814 131.106 98.2024 131.112C98.2158 131.116 98.2244 131.118 98.2292 131.12L98.2337 131.121L98.3315 131.153L98.3612 131.055L98.4515 130.753L98.4806 130.656L98.3832 130.629C98.2675 130.595 88.6644 127.913 66.2012 127.913C45.8635 127.913 35.9102 130.481 35.2376 130.67H33.1375V11.1289V11.0196L33.0286 11.0293L10.3064 13.0629C9.21315 13.0658 8.3585 14.1213 8.3585 15.3776V76.4561C8.3585 91.8551 9.2471 130.561 9.26221 130.954L9.26591 131.051H9.36214H9.67841H9.78233L9.77834 130.947C9.76333 130.556 8.87477 91.8374 8.87477 76.4561V15.3926C8.87477 14.3722 9.52665 13.5943 10.311 13.5943V13.5947L10.3199 13.5939L32.6062 11.5998V131.101V131.201H32.7062H35.2966Z" fill="#B3B3B3" stroke="#B3B3B3" stroke-width="0.2"/>
<path d="M40.8387 40.6532H89.9365C91.0761 40.6532 92.0094 39.7195 92.0094 38.5795V5.73515C92.0094 4.59519 91.0761 3.66147 89.9365 3.66147H40.8387C39.699 3.66147 38.7657 4.59519 38.7657 5.73515V38.5795C38.7657 39.7195 39.699 40.6532 40.8387 40.6532ZM39.2971 5.73515C39.2971 4.88637 39.9903 4.19293 40.8387 4.19293H89.9365C90.7849 4.19293 91.4781 4.88637 91.4781 5.73515V38.5795C91.4781 39.4283 90.7849 40.1218 89.9365 40.1218H40.8387C39.9903 40.1218 39.2971 39.4283 39.2971 38.5795V5.73515Z" fill="#B3B3B3" stroke="#B3B3B3" stroke-width="0.2"/>
<path d="M86.0359 34.928H86.1359V34.828V9.65234V9.55234H86.0359H44.3027H44.2027V9.65234V34.828V34.928H44.3027H86.0359ZM85.6196 34.4116H44.719V10.0687H85.6196V34.4116Z" fill="#B3B3B3" stroke="#B3B3B3" stroke-width="0.2"/>
<path d="M70.9251 64.1921V64.0921H70.8251H59.876H59.776V64.1921V64.5085V64.6085H59.876H70.8251H70.9251V64.5085V64.1921Z" fill="#B3B3B3" stroke="#B3B3B3" stroke-width="0.2"/>
<path d="M76.3422 64.5084V64.6084H76.4422H96.1717C96.7842 64.6084 97.2808 64.1116 97.2808 63.499V2.97792C97.2808 2.36566 96.7705 1.87067 96.1757 1.86849C95.8085 1.84109 77.9906 0.663184 65.3877 0.663184C50.8914 0.663184 35.1329 1.83717 34.7648 1.86849C34.1544 1.87092 33.6603 2.36678 33.6603 2.97792V63.499C33.6603 64.1116 34.1568 64.6084 34.7693 64.6084H54.2428H54.3428V64.5084V64.192V64.092H54.2428H34.7693C34.4481 64.092 34.1765 63.8204 34.1765 63.499V2.97792C34.1765 2.65785 34.4467 2.38487 34.7844 2.38487V2.38529L34.7934 2.38446C34.957 2.36959 50.8278 1.17957 65.4028 1.17957C78.0499 1.17957 95.9692 2.36958 96.1641 2.38458L96.164 2.38487H96.1717C96.493 2.38487 96.7645 2.65646 96.7645 2.97792V63.499C96.7645 63.8204 96.493 64.092 96.1717 64.092H76.4422H76.3422V64.192V64.5084Z" fill="#B3B3B3" stroke="#B3B3B3" stroke-width="0.2"/>
<path d="M57.441 49.2012C57.441 53.6256 61.0401 57.226 65.4629 57.226C69.8858 57.226 73.4849 53.6256 73.4849 49.2012C73.4849 44.7768 69.8858 41.1764 65.4629 41.1764C61.0401 41.1764 57.441 44.7768 57.441 49.2012ZM57.9724 49.2012C57.9724 45.068 61.3313 41.7078 65.4629 41.7078C69.5945 41.7078 72.9535 45.068 72.9535 49.2012C72.9535 53.3344 69.5945 56.6946 65.4629 56.6946C61.3313 56.6946 57.9724 53.3344 57.9724 49.2012Z" fill="#B3B3B3" stroke="#B3B3B3" stroke-width="0.2"/>
<path d="M58.4957 49.201C58.4957 53.053 61.628 56.1712 65.4634 56.1712C69.3139 56.1712 72.4311 53.0529 72.4311 49.201C72.4311 45.3491 69.3139 42.2308 65.4634 42.2308C61.6128 42.2308 58.4957 45.3491 58.4957 49.201ZM59.027 49.201C59.027 45.6552 61.9042 42.7623 65.4634 42.7623C69.0225 42.7623 71.8997 45.6552 71.8997 49.201C71.8997 52.7466 69.0076 55.6398 65.4634 55.6398C61.9191 55.6398 59.027 52.7466 59.027 49.201Z" fill="#B3B3B3" stroke="#B3B3B3" stroke-width="0.2"/>
<path d="M60.1412 82.3487H60.1413V82.3468V59.4461C60.1413 58.5924 59.4489 57.8998 58.5954 57.8998H55.5381C54.6846 57.8998 53.9923 58.5924 53.9923 59.4461V82.3468C53.9923 83.2005 54.6846 83.8931 55.5381 83.8931H58.5954C59.4349 83.8931 60.1252 83.1999 60.1412 82.3487ZM54.5086 59.4461C54.5086 58.8836 54.9608 58.4312 55.523 58.4312H58.5954C59.1577 58.4312 59.6099 58.8836 59.6099 59.4461V82.3468C59.6099 82.9093 59.1577 83.3617 58.5954 83.3617H55.523C54.9608 83.3617 54.5086 82.9093 54.5086 82.3468V59.4461Z" fill="#B3B3B3" stroke="#B3B3B3" stroke-width="0.2"/>
<path d="M76.7081 82.3487H76.7081V82.3468V59.4461C76.7081 58.5924 76.0158 57.8998 75.1623 57.8998H72.105C71.2515 57.8998 70.5592 58.5924 70.5592 59.4461V82.3468C70.5592 83.2005 71.2515 83.8931 72.105 83.8931H75.1623C76.0018 83.8931 76.6921 83.1999 76.7081 82.3487ZM71.0755 59.4461C71.0755 58.8836 71.5277 58.4312 72.0899 58.4312H75.1623C75.7245 58.4312 76.1768 58.8836 76.1768 59.4461V82.3468C76.1768 82.9093 75.7245 83.3617 75.1623 83.3617H72.0899C71.5277 83.3617 71.0755 82.9093 71.0755 82.3468V59.4461Z" fill="#B3B3B3" stroke="#B3B3B3" stroke-width="0.2"/>
<path d="M59.6104 74.1508V74.2508H59.7104H70.9759H70.9909H71.0909V74.1508V69.6008V69.5608L71.0633 69.5318L70.1144 68.5374L70.0849 68.5064H70.0421H60.6141H60.5727L60.5434 68.5357L59.6397 69.4397L59.6104 69.469V69.5104V74.1508ZM70.5445 73.7344H60.1117V69.6724L60.7609 69.0228H69.8333L70.5445 69.7762V73.7344Z" fill="#B3B3B3" stroke="#B3B3B3" stroke-width="0.2"/>
<path d="M32.7716 89.6739L32.7764 89.7749L32.8774 89.769C33.1332 89.7539 58.2369 88.5639 66.6074 88.5639C74.4659 88.5639 95.1417 89.6033 95.3512 89.6182L95.4533 89.6255L95.4582 89.5232L95.4732 89.2069L95.4779 89.1093L95.3805 89.1024C95.1682 89.0872 74.4723 88.0475 66.6074 88.0475C58.2305 88.0475 33.1068 89.2379 32.8506 89.2529L32.7519 89.2587L32.7566 89.3575L32.7716 89.6739Z" fill="#B3B3B3" stroke="#B3B3B3" stroke-width="0.2"/>
<path d="M70.9251 71.7705V71.6705H70.8251H59.876H59.776V71.7705V72.0869V72.1869H59.876H70.8251H70.9251V72.0869V71.7705Z" fill="#B3B3B3" stroke="#B3B3B3" stroke-width="0.2"/>
<path d="M2.15765 141.779L2.18105 141.793H2.20815H2.23461C2.8375 141.836 42.6686 144.309 69.2131 144.309C79.5852 144.309 94.5991 143.687 107.075 143.058C113.313 142.744 118.918 142.427 122.991 142.186C126.994 141.948 129.525 141.783 129.718 141.763H129.772H129.81L129.839 141.737L130.833 140.848L130.866 140.819V140.774V136.706V136.656L130.827 136.626L122.543 130.314L122.464 130.253L122.403 130.333L122.208 130.589L122.147 130.668L122.226 130.729L130.335 136.921V140.593L129.581 141.264C127.467 141.396 89.494 143.762 69.2433 143.762C43.1225 143.762 4.12865 141.375 2.34318 141.263L1.80466 140.953L1.33535 136.919L12.0706 129.231L32.8623 131.186L32.9618 131.195L32.9713 131.096L33.0014 130.779L33.0109 130.68L32.9111 130.67L11.9617 128.712L11.9246 128.708L11.8942 128.73L0.899936 136.595L0.899851 136.594L0.895636 136.598L0.820332 136.658L0.777027 136.693L0.783495 136.748L1.31062 141.238L1.31643 141.287L1.35943 141.312L2.15765 141.779Z" fill="#B3B3B3" stroke="#B3B3B3" stroke-width="0.2"/>
<path d="M122.504 73.3223V73.4223H122.604H122.92H122.935H123.035V73.3223V14.6393C123.035 13.3836 122.181 12.3275 121.102 12.3246L98.3649 10.291L98.256 10.2813V10.3906V73.3072V73.4072H98.356H98.6873H98.7873V73.3072V10.8314L121.074 12.8255L121.074 12.8259H121.083C121.851 12.8259 122.504 13.6176 122.504 14.6242V73.3223Z" fill="#B3B3B3" stroke="#B3B3B3" stroke-width="0.2"/>
<path d="M0.919493 136.968L0.91011 137.066L1.00857 137.076C1.01103 137.077 1.01557 137.077 1.02218 137.078C1.78847 137.159 30.3566 140.196 65.7951 140.196C102.683 140.196 129.952 137.147 130.573 137.077L130.582 137.076L130.68 137.066L130.671 136.968L130.64 136.651L130.631 136.55L130.53 136.561L130.521 136.562C129.895 136.632 102.652 139.679 65.7951 139.679C30.3863 139.679 1.84386 136.645 1.07347 136.563C1.06673 136.562 1.06211 136.561 1.05964 136.561L0.959187 136.551L0.949614 136.651L0.919493 136.968Z" fill="#B3B3B3" stroke="#B3B3B3" stroke-width="0.2"/>
<path d="M97.779 148.633C98.415 147.563 98.6396 146.204 98.7205 145.002H98.7719V144.902V143.199V143.099H98.672H98.3557H98.2557V143.199C98.2557 144.408 98.2546 146.115 97.7477 147.52C97.4949 148.22 97.1184 148.839 96.559 149.282C96.0008 149.725 95.2526 150 94.2441 150V150L94.237 150C94.0283 150.015 73.6535 150.904 66.8939 150.904C59.6823 150.904 37.952 150.015 37.728 150L37.728 150H37.7214C36.3043 150 35.3116 149.671 34.6602 149.005L34.66 149.005C34.1536 148.491 33.9066 147.795 33.7915 147.039C33.6777 146.292 33.6943 145.498 33.7092 144.78L33.7097 144.755C33.7249 144.512 33.7249 144.269 33.7249 144.045V144.043V143.199V143.099H33.6249H33.3086H33.2086V143.199V144.043C33.2086 144.153 33.205 144.266 33.2013 144.383L33.2011 144.388C33.1974 144.506 33.1936 144.628 33.1935 144.75C33.171 145.502 33.1518 146.358 33.2833 147.174C33.415 147.991 33.6993 148.778 34.2912 149.386L34.2914 149.386C35.0549 150.166 36.1842 150.531 37.7184 150.531C38.1143 150.553 59.7059 151.435 66.8939 151.435C73.62 151.435 93.8225 150.556 94.2323 150.531C96.0289 150.53 97.1219 149.739 97.779 148.633Z" fill="#B3B3B3" stroke="#B3B3B3" stroke-width="0.2"/>
<path d="M33.402 146.523L33.5003 146.535L33.5137 146.437L33.5589 146.106L33.5725 146.006L33.4723 145.993L16.1601 143.8L15.3256 142.145L15.2798 142.054L15.1898 142.101L14.9036 142.252L14.8167 142.298L14.8609 142.386L15.7947 144.239L15.8186 144.286L15.8713 144.293L33.402 146.523Z" fill="#B3B3B3" stroke="#B3B3B3" stroke-width="0.2"/>
<path d="M98.2571 146.437L98.2704 146.535L98.3682 146.523L116.908 144.293L116.956 144.288L116.981 144.246L118.126 142.363L118.178 142.277L118.093 142.225L117.822 142.06L117.736 142.008L117.684 142.093L116.64 143.799L98.2992 145.993L98.1982 146.005L98.212 146.106L98.2571 146.437Z" fill="#B3B3B3" stroke="#B3B3B3" stroke-width="0.2"/>
<path d="M8.9585 135.449L8.72448 135.611L9.00897 135.63L9.45899 135.66C9.87369 135.702 38.1808 137.876 66.5023 137.876C94.8282 137.876 121.446 135.701 121.844 135.66C121.845 135.66 121.846 135.66 121.846 135.66L122.279 135.63L122.558 135.611L122.33 135.449L116.411 131.246L116.384 131.226L116.35 131.227L89.1554 132.129L88.0841 129.883L88.0569 129.826H87.9939H43.61H43.5411L43.5166 129.89L42.5332 132.475L15.1197 131.227L15.1198 131.227H15.1152H15.055H15.0236L14.9978 131.245L8.9585 135.449ZM88.7921 132.605L88.8202 132.665L88.8857 132.663L116.217 131.76L121.086 135.212C116.653 135.56 92.2895 137.359 66.5023 137.359C40.6558 137.359 14.8374 135.558 10.221 135.211L15.1748 131.745L42.8072 133.009L42.8797 133.012L42.9053 132.945L43.8899 130.342H87.7197L88.7921 132.605Z" fill="#B3B3B3" stroke="#B3B3B3" stroke-width="0.2"/>
<path d="M107.202 54.3688V54.5027L107.33 54.4647L109.199 53.9114H120.179H120.279V53.8114V42.7829V42.6867L120.182 42.6829L117.065 42.5624L116.966 42.5586L116.961 42.6576L116.946 42.974L116.941 43.0743L117.042 43.0786L119.747 43.195V53.395H109.169H109.155L109.142 53.3987L107.718 53.7998V43.3787L109.306 42.7631L114.677 42.9882L114.777 42.9924L114.781 42.8929L114.796 42.5614L114.801 42.4608L114.7 42.457L109.248 42.246L109.228 42.2452L109.208 42.2527L107.266 43.006L107.202 43.0308V43.0993V54.3688Z" fill="#B3B3B3" stroke="#B3B3B3" stroke-width="0.2"/>
<path d="M117.062 64.6085H117.164L117.162 64.5066L116.951 53.4932L116.949 53.3951H116.851H110.013H109.913V53.4951V64.5085V64.6085H110.013H117.062ZM116.436 53.9115L116.628 64.0921H110.429V53.9115H116.436Z" fill="#B3B3B3" stroke="#B3B3B3" stroke-width="0.2"/>
<path d="M111.027 65.7891V65.8457L111.075 65.8748L111.145 65.9163C111.152 65.9217 111.158 65.926 111.162 65.9287C111.172 65.935 111.185 65.9425 111.2 65.9509C111.23 65.9677 111.271 65.989 111.325 66.0134C111.432 66.0621 111.588 66.1231 111.796 66.1828C112.212 66.3022 112.835 66.4164 113.687 66.4164C115.548 66.4164 115.945 65.9632 116.033 65.8086L116.033 65.8086L116.036 65.8037L116.051 65.7735L116.061 65.7524V65.7288V64.177V64.077H115.961H111.127H111.027V64.177V65.7891ZM111.528 65.5369V64.6235H115.53V65.6024C115.397 65.6876 114.935 65.9 113.687 65.9C112.496 65.9 111.785 65.6493 111.528 65.5369Z" fill="#B3B3B3" stroke="#B3B3B3" stroke-width="0.2"/>
<path d="M119.124 43.0336H119.224V42.9336V22.7148C119.224 21.4886 118.312 20.4805 117.1 20.3703C116.268 20.2947 115.256 20.2494 114.079 20.2494C109.516 20.2494 108.099 21.3242 107.984 21.4114C107.982 21.4126 107.981 21.4136 107.98 21.4144L107.98 21.4144L107.919 21.4596L107.879 21.4896V21.5396V42.9186V43.0186H107.979H108.296H108.396V42.9186V21.7306C108.771 21.5038 110.309 20.7507 114.079 20.7507C115.251 20.7507 116.242 20.7958 117.051 20.8707C117.995 20.9712 118.708 21.7428 118.708 22.6997V42.9336V43.0336H118.808H119.124Z" fill="#B3B3B3" stroke="#B3B3B3" stroke-width="0.2"/>
<path d="M112.383 46.8207C112.383 48.8496 114.024 50.4914 116.052 50.4914C118.065 50.4914 119.722 48.8498 119.722 46.8207C119.722 44.7918 118.081 43.15 116.052 43.15C114.024 43.15 112.383 44.7918 112.383 46.8207ZM112.899 46.8207C112.899 45.083 114.315 43.6664 116.052 43.6664C117.789 43.6664 119.205 45.083 119.205 46.8207C119.205 48.5584 117.789 49.975 116.052 49.975C114.315 49.975 112.899 48.5584 112.899 46.8207Z" fill="#B3B3B3" stroke="#B3B3B3" stroke-width="0.2"/>
<path d="M114.847 43.7868H114.947V43.6868V31.3476C114.947 30.8755 115.324 30.4984 115.796 30.4984C116.268 30.4984 116.645 30.8755 116.645 31.3476V43.4006V43.5006H116.745H117.061H117.161V43.4006V31.3476C117.161 30.5994 116.544 29.982 115.796 29.982C115.048 29.982 114.431 30.5994 114.431 31.3476V43.6868V43.7868H114.531H114.847Z" fill="#B3B3B3" stroke="#B3B3B3" stroke-width="0.2"/>
<path d="M109.526 42.4968V42.3968H109.426H109.109H109.009V42.4968V53.6458V53.7458H109.109H109.426H109.526V53.6458V42.4968Z" fill="#B3B3B3" stroke="#B3B3B3" stroke-width="0.2"/>
<path d="M98.4792 10.3719L98.4083 10.3014L98.3378 10.3724L96.8407 11.8789L96.7702 11.9499L96.8411 12.0204L97.0654 12.2435L97.1363 12.314L97.2068 12.243L98.7039 10.7364L98.7744 10.6655L98.7035 10.595L98.4792 10.3719Z" fill="#B3B3B3" stroke="#B3B3B3" stroke-width="0.2"/>
<path d="M100.017 75.5611L100.017 75.5611C102.808 75.8478 106.532 76.0136 110.48 76.0136C114.428 76.0136 118.137 75.8478 120.942 75.5611L120.943 75.5611C123.18 75.3199 124.31 75.059 124.884 74.8254C125.17 74.7087 125.329 74.5942 125.415 74.482C125.505 74.3636 125.505 74.2586 125.505 74.1961C125.505 74.1336 125.505 74.028 125.415 73.9085C125.329 73.795 125.171 73.679 124.884 73.5612C124.31 73.3256 123.18 73.0647 120.942 72.831L120.942 72.831C118.152 72.5443 114.428 72.3785 110.48 72.3785C106.532 72.3785 102.808 72.5292 100.017 72.8311C97.7797 73.0722 96.6492 73.3331 96.0761 73.5667C95.7896 73.6835 95.6307 73.7979 95.5451 73.9101C95.4547 74.0285 95.4547 74.1336 95.4547 74.1961C95.4547 74.2585 95.4547 74.3642 95.5447 74.4837C95.6302 74.5972 95.7891 74.7131 96.0758 74.831C96.6492 75.0666 97.7799 75.3275 100.017 75.5611ZM96.0044 74.181C96.0069 74.1791 96.0095 74.1772 96.0123 74.1751C96.0757 74.1289 96.2072 74.0556 96.4713 73.9669C96.9993 73.7897 98.0375 73.557 100.068 73.3464C102.85 73.0606 106.551 72.8949 110.48 72.8949C114.408 72.8949 118.11 73.0606 120.892 73.3464C122.922 73.557 123.96 73.7897 124.488 73.9669C124.752 74.0556 124.884 74.1289 124.947 74.1751C124.95 74.1772 124.953 74.1791 124.955 74.181C124.953 74.1829 124.95 74.1848 124.947 74.1869C124.884 74.2331 124.752 74.3064 124.488 74.3951C123.96 74.5724 122.922 74.805 120.892 75.0156C118.11 75.3015 114.423 75.4671 110.48 75.4671C106.536 75.4671 102.85 75.3015 100.068 75.0156C98.0374 74.805 96.9993 74.5724 96.4713 74.3951C96.2072 74.3064 96.0757 74.2331 96.0123 74.1869C96.0095 74.1848 96.0069 74.1829 96.0044 74.181Z" fill="#B3B3B3" stroke="#B3B3B3" stroke-width="0.2"/>
<path d="M100.017 92.2845L100.017 92.2845C102.808 92.5712 106.532 92.737 110.48 92.737C114.428 92.737 118.137 92.5712 120.942 92.2845L120.943 92.2844C123.18 92.0433 124.31 91.7824 124.884 91.5488C125.17 91.4321 125.329 91.3176 125.415 91.2054C125.505 91.087 125.505 90.982 125.505 90.9195C125.505 90.857 125.505 90.7513 125.415 90.6319C125.329 90.5184 125.171 90.4024 124.884 90.2846C124.31 90.0489 123.18 89.7881 120.942 89.5544L120.942 89.5544C118.152 89.2677 114.428 89.1019 110.48 89.1019C106.532 89.1019 102.808 89.2526 100.017 89.5545C97.7797 89.7956 96.6492 90.0565 96.0761 90.2901C95.7896 90.4069 95.6307 90.5213 95.5451 90.6335C95.4547 90.7519 95.4547 90.857 95.4547 90.9195C95.4547 90.9819 95.4547 91.0876 95.5447 91.207C95.6302 91.3206 95.7891 91.4365 96.0758 91.5543C96.6492 91.79 97.7799 92.0509 100.017 92.2845ZM96.0043 90.9045C96.0068 90.9026 96.0095 90.9006 96.0123 90.8985C96.0757 90.8523 96.2072 90.779 96.4713 90.6903C96.9993 90.513 98.0375 90.2804 100.068 90.0698C102.85 89.7839 106.551 89.6183 110.48 89.6183C114.408 89.6183 118.11 89.7839 120.892 90.0698C122.922 90.2804 123.961 90.5093 124.489 90.6848C124.753 90.7726 124.884 90.8453 124.947 90.8918C124.953 90.8967 124.959 90.9012 124.964 90.9053C124.959 90.9098 124.953 90.9147 124.946 90.92C124.883 90.9677 124.752 91.0421 124.488 91.1317C123.96 91.3108 122.922 91.5434 120.892 91.7541C118.11 92.0399 114.423 92.2056 110.48 92.2056C106.536 92.2056 102.85 92.0399 100.068 91.7541C98.0377 91.5359 96.9996 91.2996 96.4716 91.1204C96.2075 91.0308 96.0759 90.9571 96.0124 90.9106C96.0096 90.9085 96.0069 90.9065 96.0043 90.9045Z" fill="#B3B3B3" stroke="#B3B3B3" stroke-width="0.2"/>
<path d="M96.2525 112.766C96.2525 112.998 96.3907 113.201 96.6107 113.376C96.8314 113.552 97.1483 113.712 97.5405 113.858C98.3258 114.149 99.438 114.394 100.754 114.59C103.389 114.982 106.862 115.186 110.223 115.186C113.585 115.186 117.058 114.982 119.693 114.59C121.009 114.394 122.121 114.149 122.906 113.858C123.299 113.712 123.615 113.552 123.836 113.376C124.056 113.201 124.194 112.998 124.194 112.766C124.194 112.534 124.057 112.331 123.837 112.155C123.617 111.979 123.3 111.82 122.909 111.674C122.124 111.382 121.014 111.138 119.698 110.942C117.066 110.549 113.593 110.346 110.223 110.346C106.854 110.346 103.381 110.549 100.749 110.942C99.4333 111.138 98.3225 111.382 97.5383 111.674C97.1467 111.82 96.8303 111.979 96.61 112.155C96.3903 112.331 96.2525 112.534 96.2525 112.766ZM97.5751 112.207C98.1792 111.97 99.1425 111.719 100.57 111.494C103.154 111.088 106.567 110.862 110.223 110.862C113.865 110.862 117.293 111.088 119.877 111.494C121.304 111.719 122.268 111.97 122.872 112.207C123.174 112.326 123.382 112.44 123.512 112.541C123.646 112.646 123.678 112.723 123.678 112.766C123.678 112.809 123.646 112.885 123.512 112.99C123.382 113.092 123.174 113.205 122.872 113.324C122.268 113.562 121.304 113.813 119.877 114.038C117.293 114.444 113.88 114.67 110.223 114.67C106.567 114.67 103.139 114.444 100.57 114.038C99.1426 113.813 98.1792 113.562 97.5751 113.324C97.2726 113.205 97.0652 113.092 96.9352 112.99C96.8013 112.885 96.7688 112.809 96.7688 112.766C96.7688 112.723 96.8013 112.646 96.9352 112.541C97.0652 112.44 97.2726 112.326 97.5751 112.207Z" fill="#B3B3B3" stroke="#B3B3B3" stroke-width="0.2"/>
<path d="M99.5206 124.834C99.5206 125.432 99.8325 125.988 100.376 126.481C100.92 126.973 101.703 127.41 102.667 127.773C104.596 128.499 107.27 128.941 110.269 128.941C113.267 128.941 115.941 128.499 117.87 127.773C118.834 127.41 119.617 126.973 120.161 126.481C120.705 125.988 121.016 125.432 121.016 124.834C121.016 124.235 120.703 123.679 120.158 123.186C119.614 122.694 118.829 122.258 117.864 121.894C115.934 121.168 113.259 120.726 110.269 120.726C107.278 120.726 104.603 121.168 102.673 121.894C101.708 122.258 100.923 122.694 100.379 123.186C99.8335 123.679 99.5206 124.235 99.5206 124.834ZM100.037 124.834C100.037 124.379 100.307 123.926 100.827 123.497C101.346 123.07 102.1 122.677 103.035 122.344C104.905 121.678 107.476 121.257 110.269 121.257C113.061 121.257 115.632 121.678 117.502 122.344C118.437 122.677 119.191 123.07 119.71 123.497C120.23 123.926 120.5 124.379 120.5 124.834C120.5 125.288 120.23 125.741 119.71 126.17C119.191 126.598 118.437 126.99 117.502 127.323C115.632 127.989 113.061 128.41 110.269 128.41C107.476 128.41 104.905 127.989 103.035 127.323C102.1 126.99 101.346 126.598 100.827 126.17C100.307 125.741 100.037 125.288 100.037 124.834Z" fill="#B3B3B3" stroke="#B3B3B3" stroke-width="0.2"/>
<path d="M99.9313 134.155L99.9305 134.155C98.9252 133.552 98.2443 132.5 98.1204 131.338L98.1204 131.337L98.1002 131.142C97.5495 125.823 95.8114 109.033 95.4543 102.677C95.0625 95.9387 94.9571 75.3552 94.9571 75.1452V75.1V75.0751L94.9688 75.0532L95.4959 74.0588L95.5426 73.9707L95.6308 74.0172L95.917 74.1678L96.0053 74.2143L95.959 74.3027L95.4885 75.1999C95.4902 76.4812 95.6116 96.1162 95.9853 102.635C96.3616 109.066 98.1234 126.178 98.6507 131.272L98.6507 131.272C98.7528 132.264 99.3367 133.171 100.199 133.697C101.85 134.679 105.189 135.853 111.684 135.853C114.786 135.853 117.771 135.043 119.74 134.381C120.847 134.002 121.649 132.996 121.766 131.815C122.383 125.486 123.859 110.12 124.28 104.005C124.28 104.005 124.281 104.005 124.281 104.005L124.38 104.012C124.847 97.157 125.63 76.2451 125.675 74.9042L99.9313 134.155ZM99.9313 134.155C101.668 135.177 105.091 136.384 111.684 136.384C114.847 136.384 117.901 135.567 119.909 134.887L119.91 134.887C121.212 134.437 122.141 133.259 122.281 131.88L122.281 131.879C122.898 125.552 124.374 110.183 124.796 104.049L124.796 104.049C125.037 100.522 125.361 93.2812 125.627 86.8954C125.814 82.387 125.972 78.3062 126.052 76.2556C126.085 75.4005 126.104 74.8984 126.107 74.8656L126.107 74.8656V74.859V74.7987V74.7599L126.081 74.7312L125.433 74.0231L125.367 73.9509L125.293 74.0153L125.052 74.2263L124.975 74.2939L125.045 74.3694L125.574 74.9418L99.9313 134.155Z" fill="#B3B3B3" stroke="#B3B3B3" stroke-width="0.2"/>
<path d="M33.0075 11.0997L32.9262 11.0415L32.8681 11.1229L32.6843 11.3803L32.6262 11.4617L32.7075 11.5199L33.7614 12.2729L33.8428 12.331L33.9009 12.2497L34.0847 11.9922L34.1428 11.9108L34.0615 11.8527L33.0075 11.0997Z" fill="#B3B3B3" stroke="#B3B3B3" stroke-width="0.2"/>
<path d="M110.278 53.9922V53.8922H110.178H107.467H107.367V53.9922V54.3086V54.4086H107.467H110.178H110.278V54.3086V53.9922Z" fill="#B3B3B3" stroke="#B3B3B3" stroke-width="0.2"/>
<path d="M118.387 54.4087H118.402L118.416 54.4043L120.088 53.8921L120.183 53.8629L120.155 53.7677L120.064 53.4664L120.035 53.3703L119.939 53.3994L118.312 53.8923H116.715H116.615V53.9923V54.3087V54.4087H116.715H118.387Z" fill="#B3B3B3" stroke="#B3B3B3" stroke-width="0.2"/>
</svg>
