<svg width="139" height="124" viewBox="0 0 139 124" fill="none" xmlns="http://www.w3.org/2000/svg">
<path d="M63.3932 87.9079C63.3932 98.0357 71.6377 106.284 81.7613 106.284C91.8849 106.284 100.129 98.0357 100.129 87.9079C100.129 77.7801 91.8849 69.5321 81.7613 69.5321C71.6377 69.5321 63.3932 77.7801 63.3932 87.9079ZM63.9374 87.9202C63.9374 78.0872 71.9326 70.0887 81.7613 70.0887C91.5777 70.0887 99.5852 78.0873 99.5852 87.9202C99.5852 97.7531 91.59 105.752 81.7613 105.752C71.9326 105.752 63.9374 97.7531 63.9374 87.9202Z" fill="#B5B5B5" stroke="#B5B5B5" stroke-width="0.2"/>
<path d="M59.4107 87.9078C59.4107 100.237 69.4378 110.268 81.762 110.268C94.0861 110.268 104.113 100.237 104.113 87.9078C104.113 75.5785 94.0861 65.5472 81.762 65.5472C69.4378 65.5472 59.4107 75.5785 59.4107 87.9078ZM59.955 87.9078C59.955 75.8734 69.745 66.0916 81.762 66.0916C93.7789 66.0916 103.569 75.8734 103.569 87.9078C103.569 99.9421 93.7789 109.724 81.762 109.724C69.7327 109.724 59.955 99.9422 59.955 87.9078Z" fill="#B5B5B5" stroke="#B5B5B5" stroke-width="0.2"/>
<path d="M104.182 110.374L104.182 110.374C110.163 104.391 113.456 96.4325 113.456 87.9692C113.456 79.5058 110.163 71.5477 104.182 65.5641C98.2006 59.5805 90.2458 56.2862 81.786 56.2862C73.3261 56.2862 65.3714 59.5805 59.3903 65.5641C53.4092 71.5477 50.1163 79.5058 50.1163 87.9692C50.1163 96.4325 53.4092 104.391 59.3903 110.374C65.3714 116.358 73.3261 119.652 81.786 119.652C90.2459 119.652 98.2006 116.345 104.182 110.374ZM50.6605 87.9569C50.6605 70.7817 64.6181 56.8183 81.786 56.8183C98.9539 56.8183 112.911 70.7817 112.911 87.9569C112.911 105.132 98.9539 119.095 81.786 119.095C64.6181 119.095 50.6605 105.132 50.6605 87.9569Z" fill="#B5B5B5" stroke="#B5B5B5" stroke-width="0.2"/>
<path d="M78.5758 83.2099C78.5758 84.8885 79.9359 86.2493 81.6139 86.2493C83.2919 86.2493 84.6521 84.8885 84.6521 83.2099C84.6521 81.5313 83.2919 80.1705 81.6139 80.1705C79.9359 80.1705 78.5758 81.5313 78.5758 83.2099ZM79.12 83.2099C79.12 81.8384 80.2431 80.7149 81.6139 80.7149C82.9967 80.7149 84.1078 81.8381 84.1078 83.2099C84.1078 84.5813 82.9847 85.7049 81.6139 85.7049C80.2431 85.7049 79.12 84.5813 79.12 83.2099Z" fill="#B5B5B5" stroke="#B5B5B5" stroke-width="0.2"/>
<path d="M118.71 92.3685L118.61 92.3613L118.266 92.3367L118.166 92.3296L118.173 92.2299L119.12 78.8982L119.12 78.8979C119.205 77.7335 119.218 76.5941 119.156 75.5165L119.156 75.5163C118.065 55.5964 101.574 39.9939 81.6136 39.9939H81.6125H81.6114H81.6104H81.6093H81.6082H81.6071H81.606H81.605H81.6039H81.6028H81.6017H81.6006H81.5996H81.5985H81.5974H81.5963H81.5952H81.5942H81.5931H81.592H81.5909H81.5898H81.5888H81.5877H81.5866H81.5855H81.5844H81.5834H81.5823H81.5812H81.5801H81.579H81.5779H81.5769H81.5758H81.5747H81.5736H81.5725H81.5715H81.5704H81.5693H81.5682H81.5671H81.5661H81.565H81.5639H81.5628H81.5617H81.5607H81.5596H81.5585H81.5574H81.5563H81.5553H81.5542H81.5531H81.552H81.5509H81.5499H81.5488H81.5477H81.5466H81.5455H81.5445H81.5434H81.5423H81.5412H81.5401H81.5391H81.538H81.5369H81.5358H81.5347H81.5336H81.5326H81.5315H81.5304H81.5293H81.5282H81.5272H81.5261H81.525H81.5239H81.5228H81.5218H81.5207H81.5196H81.5185H81.5174H81.5164H81.5153H81.5142H81.5131H81.512H81.511H81.5099H81.5088H81.5077H81.5066H81.5056H81.5045H81.5034H81.5023H81.5012H81.5002H81.4991H81.498H81.4969H81.4958H81.4948H81.4937H81.4926H81.4915H81.4904H81.4893H81.4883H81.4872H81.4861H81.485H81.4839H81.4829H81.4818H81.4807H81.4796H81.4785H81.4775H81.4764H81.4753H81.4742H81.4731H81.4721H81.471H81.4699H81.4688H81.4677H81.4667H81.4656H81.4645H81.4634H81.4623H81.4613H81.4602H81.4591H81.458H81.4569H81.4559H81.4548H81.4537H81.4526H81.4515H81.4505H81.4494H81.4483H81.4472H81.4461H81.445H81.444H81.4429H81.4418H81.4407H81.4396H81.4386H81.4375H81.4364H81.4353H81.4342H81.4332H81.4321H81.431H81.4299H81.4288H81.4278H81.4267H81.4256H81.4245H81.4234H81.4224H81.4213H81.4202H81.4191H81.418H81.417H81.4159H81.4148H81.4137H81.4126H81.4116H81.4105H81.4094H81.4083H81.4072H81.4062H81.4051H81.404H81.4029H81.4018H81.4007H81.3997H81.3986H81.3975H81.3964H81.3953H81.3943H81.3932H81.3921H81.391H81.3899H81.3889H81.3878H81.3867H81.3856H81.3845H81.3835H81.3824H81.3813H81.3802H81.3791H81.3781H81.377H81.3759H81.3748H81.3737H81.3727H81.3716H81.3705H81.3694H81.3683H81.3673H81.3662H81.3651H81.364H81.3629H81.3619H81.3608H81.3597H81.3586H81.3575H81.3564H81.3554H81.3543H81.3532H81.3521H81.351H81.35H81.3489H81.3478H81.3467H81.3456H81.3446H81.3435H81.3424H81.3413H81.3402H81.3392H81.3381H81.337H81.3359H81.3348H81.3338H81.3327H81.3316H81.3305H81.3294H81.3284H81.3273H81.3262H81.3251H81.324H81.323H81.3219H81.3208H81.3197H81.3186H81.3176H81.3165H81.3154H81.3143H81.3132H81.3121H81.3111H81.31H81.3089H81.3078H81.3067H81.3057H81.3046H81.3035H81.3024H81.3013H81.3003H81.2992H81.2981H81.297H81.2959H81.2949H81.2938H81.2927H81.2916H81.2905H81.2895H81.2884H81.2873H81.2862H81.2851H81.2841H81.283H81.2819H81.2808H81.2797H81.2787H81.2776H81.2765H81.2754H81.2743H81.2733H81.2722H81.2711H81.27H81.2689H81.2679H81.2668H81.2657H81.2646H81.2635H81.2624H81.2614H81.2603H81.2592H81.2581H81.257H81.256H81.2549H81.2538H81.2527H81.2516H81.2506H81.2495H81.2484H81.2473H81.2462H81.2452H81.2441H81.243H81.2419H81.2408H81.2398H81.2387H81.2376H81.2365H81.2354H81.2344H81.2333H81.2322H81.2311H81.23H81.229H81.2279H81.2268H81.2257H81.2246H81.2236H81.2225H81.2214H81.2203H81.2192H81.2181H81.2171H81.216H81.2149H81.2138H81.2127H81.2117H81.2106H81.2095H81.2084H81.2073H81.2063H81.2052H81.2041H81.203H81.2019H81.2009H81.1998H81.1987H81.1976H81.1965H81.1955H81.1944H81.1933H81.1922H81.1911H81.1901H81.189H81.1879H81.1868H81.1857H81.1847H81.1836H81.1825H81.1814H81.1803H81.1793H81.1782H81.1771H81.176H81.1749H81.1738H81.1728H81.1717H81.1706H81.1695H81.1684H81.1674H81.1663H81.1652H81.1641H81.163H81.162H81.1609H81.1598H81.1587H81.1576H81.1566H81.1555H81.1544H81.1533H81.1522H81.1512H81.1501H81.149H81.1479H81.1468H81.1458H81.1447H81.1436H81.1425H81.1414H81.1404H81.1393H81.1382H81.1371H81.136H81.135H81.1339H81.1328H81.1317H81.1306H81.1295H81.1285H81.1274H81.1263H81.1252H81.1241H81.1231H81.122H81.1209H81.1198H81.1187H81.1177H81.1166H81.1155H81.1144H81.1133H81.1123H81.1112H81.1101H81.109H81.1079H81.1069H81.1058H81.1047H81.1036H81.1025H81.1015H81.1004H81.0993H81.0982H81.0971H81.0961H81.095H81.0939H81.0928H81.0917H81.0907H81.0896H81.0885H81.0874H81.0863H81.0853H81.0842H81.0831H81.082H81.0809H81.0798H81.0788H81.0777H81.0766H81.0755H81.0744H81.0734H81.0723H81.0712H81.0701H81.069H81.068H81.0669H81.0658H81.0647H81.0636H81.0626H81.0615H81.0611C61.5563 40.2764 45.6546 55.8896 44.8699 75.5517L44.77 75.5477L44.8699 75.5517L44.452 85.981L44.448 86.0805L44.3485 86.0769L44.0042 86.0646L43.9039 86.061L43.9079 85.9607L44.3259 75.5315C44.708 65.9132 48.6894 56.8988 55.5427 50.1535C62.4085 43.3836 71.4688 39.5852 81.059 39.4496L81.0604 39.4496L81.0615 39.4496H81.0626H81.0636H81.0647H81.0658H81.0669H81.068H81.069H81.0701H81.0712H81.0723H81.0734H81.0744H81.0755H81.0766H81.0777H81.0788H81.0798H81.0809H81.082H81.0831H81.0842H81.0853H81.0863H81.0874H81.0885H81.0896H81.0907H81.0917H81.0928H81.0939H81.095H81.0961H81.0971H81.0982H81.0993H81.1004H81.1015H81.1025H81.1036H81.1047H81.1058H81.1069H81.1079H81.109H81.1101H81.1112H81.1123H81.1133H81.1144H81.1155H81.1166H81.1177H81.1187H81.1198H81.1209H81.122H81.1231H81.1241H81.1252H81.1263H81.1274H81.1285H81.1295H81.1306H81.1317H81.1328H81.1339H81.135H81.136H81.1371H81.1382H81.1393H81.1404H81.1414H81.1425H81.1436H81.1447H81.1458H81.1468H81.1479H81.149H81.1501H81.1512H81.1522H81.1533H81.1544H81.1555H81.1566H81.1576H81.1587H81.1598H81.1609H81.162H81.163H81.1641H81.1652H81.1663H81.1674H81.1684H81.1695H81.1706H81.1717H81.1728H81.1738H81.1749H81.176H81.1771H81.1782H81.1793H81.1803H81.1814H81.1825H81.1836H81.1847H81.1857H81.1868H81.1879H81.189H81.1901H81.1911H81.1922H81.1933H81.1944H81.1955H81.1965H81.1976H81.1987H81.1998H81.2009H81.2019H81.203H81.2041H81.2052H81.2063H81.2073H81.2084H81.2095H81.2106H81.2117H81.2127H81.2138H81.2149H81.216H81.2171H81.2181H81.2192H81.2203H81.2214H81.2225H81.2236H81.2246H81.2257H81.2268H81.2279H81.229H81.23H81.2311H81.2322H81.2333H81.2344H81.2354H81.2365H81.2376H81.2387H81.2398H81.2408H81.2419H81.243H81.2441H81.2452H81.2462H81.2473H81.2484H81.2495H81.2506H81.2516H81.2527H81.2538H81.2549H81.256H81.257H81.2581H81.2592H81.2603H81.2614H81.2624H81.2635H81.2646H81.2657H81.2668H81.2679H81.2689H81.27H81.2711H81.2722H81.2733H81.2743H81.2754H81.2765H81.2776H81.2787H81.2797H81.2808H81.2819H81.283H81.2841H81.2851H81.2862H81.2873H81.2884H81.2895H81.2905H81.2916H81.2927H81.2938H81.2949H81.2959H81.297H81.2981H81.2992H81.3003H81.3013H81.3024H81.3035H81.3046H81.3057H81.3067H81.3078H81.3089H81.31H81.3111H81.3121H81.3132H81.3143H81.3154H81.3165H81.3176H81.3186H81.3197H81.3208H81.3219H81.323H81.324H81.3251H81.3262H81.3273H81.3284H81.3294H81.3305H81.3316H81.3327H81.3338H81.3348H81.3359H81.337H81.3381H81.3392H81.3402H81.3413H81.3424H81.3435H81.3446H81.3456H81.3467H81.3478H81.3489H81.35H81.351H81.3521H81.3532H81.3543H81.3554H81.3564H81.3575H81.3586H81.3597H81.3608H81.3619H81.3629H81.364H81.3651H81.3662H81.3673H81.3683H81.3694H81.3705H81.3716H81.3727H81.3737H81.3748H81.3759H81.377H81.3781H81.3791H81.3802H81.3813H81.3824H81.3835H81.3845H81.3856H81.3867H81.3878H81.3889H81.3899H81.391H81.3921H81.3932H81.3943H81.3953H81.3964H81.3975H81.3986H81.3997H81.4007H81.4018H81.4029H81.404H81.4051H81.4062H81.4072H81.4083H81.4094H81.4105H81.4116H81.4126H81.4137H81.4148H81.4159H81.417H81.418H81.4191H81.4202H81.4213H81.4224H81.4234H81.4245H81.4256H81.4267H81.4278H81.4288H81.4299H81.431H81.4321H81.4332H81.4342H81.4353H81.4364H81.4375H81.4386H81.4396H81.4407H81.4418H81.4429H81.444H81.445H81.4461H81.4472H81.4483H81.4494H81.4505H81.4515H81.4526H81.4537H81.4548H81.4559H81.4569H81.458H81.4591H81.4602H81.4613H81.4623H81.4634H81.4645H81.4656H81.4667H81.4677H81.4688H81.4699H81.471H81.4721H81.4731H81.4742H81.4753H81.4764H81.4775H81.4785H81.4796H81.4807H81.4818H81.4829H81.4839H81.485H81.4861H81.4872H81.4883H81.4893H81.4904H81.4915H81.4926H81.4937H81.4948H81.4958H81.4969H81.498H81.4991H81.5002H81.5012H81.5023H81.5034H81.5045H81.5056H81.5066H81.5077H81.5088H81.5099H81.511H81.512H81.5131H81.5142H81.5153H81.5164H81.5174H81.5185H81.5196H81.5207H81.5218H81.5228H81.5239H81.525H81.5261H81.5272H81.5282H81.5293H81.5304H81.5315H81.5326H81.5336H81.5347H81.5358H81.5369H81.538H81.5391H81.5401H81.5412H81.5423H81.5434H81.5445H81.5455H81.5466H81.5477H81.5488H81.5499H81.5509H81.552H81.5531H81.5542H81.5553H81.5563H81.5574H81.5585H81.5596H81.5607H81.5617H81.5628H81.5639H81.565H81.5661H81.5671H81.5682H81.5693H81.5704H81.5715H81.5725H81.5736H81.5747H81.5758H81.5769H81.5779H81.579H81.5801H81.5812H81.5823H81.5834H81.5844H81.5855H81.5866H81.5877H81.5888H81.5898H81.5909H81.592H81.5931H81.5942H81.5952H81.5963H81.5974H81.5985H81.5996H81.6006H81.6017H81.6028H81.6039H81.605H81.606H81.6071H81.6082H81.6093H81.6104H81.6114H81.6125H81.6136C101.853 39.4496 118.591 55.2702 119.688 75.4808M118.71 92.3685L119.588 75.4862M118.71 92.3685L118.717 92.2686L119.651 78.9371M118.71 92.3685L119.551 78.9299M119.688 75.4808L119.588 75.4862M119.688 75.4808C119.688 75.4808 119.688 75.4807 119.688 75.4807L119.588 75.4862M119.688 75.4808C119.75 76.5922 119.737 77.7525 119.651 78.9371M119.588 75.4862C119.65 76.5931 119.637 77.7492 119.551 78.9299M119.651 78.9371L119.651 78.9368L119.551 78.9299M119.651 78.9371L119.551 78.9299M119.219 78.9053C119.305 77.7369 119.318 76.5931 119.256 75.5108C118.162 55.5378 101.627 39.8939 81.6136 39.8939L119.219 78.9053Z" fill="#B5B5B5" stroke="#B5B5B5" stroke-width="0.2"/>
<path d="M43.7848 85.2514C43.7848 95.3628 47.7169 104.858 54.8658 112.01C62.0026 119.162 71.5063 123.096 81.6135 123.096C91.7206 123.096 101.224 119.162 108.361 112.01C115.51 104.87 119.442 95.3628 119.442 85.2514C119.442 75.14 115.51 65.6447 108.361 58.4927C101.224 51.3406 91.7206 47.4068 81.6135 47.4068C71.5063 47.4068 62.0149 51.3406 54.866 58.4926C47.7169 65.6323 43.7848 75.1401 43.7848 85.2514ZM44.329 85.2514C44.329 64.6818 61.0526 47.9512 81.6135 47.9512C102.174 47.9512 118.898 64.6818 118.898 85.2514C118.898 105.821 102.162 122.552 81.6135 122.552C61.0648 122.552 44.329 105.821 44.329 85.2514Z" fill="#B5B5B5" stroke="#B5B5B5" stroke-width="0.2"/>
<path d="M115.926 62.1907L115.951 62.2949L116.054 62.2621L116.398 62.1514L116.487 62.1228L116.464 62.0323L109.005 31.6539V31.6368L108.999 31.6207C108.368 29.8246 107.251 27.9417 105.779 26.4895C104.307 25.0373 102.474 24.0098 100.414 23.9411V23.941H100.41C100.289 23.941 100.159 23.9505 100.016 23.9609C99.9941 23.9626 99.9713 23.9642 99.9483 23.9658L99.9451 23.9661L99.9264 23.9681C98.4096 24.1251 85.9282 25.4169 81.6258 25.4169C77.8868 25.4169 67.4806 24.2726 65.0573 24.0062C65.0076 24.0007 64.9612 23.9956 64.9183 23.9909C64.4174 23.9283 63.9539 23.9409 63.5156 24.0035L63.5156 24.0035L63.5149 24.0036C61.613 24.2906 59.7321 25.439 58.3115 26.8479C56.8968 28.2508 55.9191 29.9317 55.8454 31.3067L48.6438 59.4487L48.6191 59.5452L48.7156 59.5702L49.0475 59.6563L49.1447 59.6815L49.1695 59.5843L56.3735 31.4204L56.3766 31.4082V31.3956V31.361C56.4038 30.7587 56.6436 30.0649 57.0497 29.3512C57.4556 28.6377 58.0244 27.91 58.7011 27.2422C60.0562 25.9049 61.8326 24.8184 63.5814 24.5581L63.5817 24.558C63.9769 24.4981 64.3982 24.4978 64.8463 24.5462C66.9713 24.792 77.7587 25.9735 81.6135 25.9735C85.9584 25.9735 98.5598 24.6698 99.989 24.5219C100.143 24.5101 100.262 24.51 100.384 24.51C102.299 24.577 104.019 25.5415 105.412 26.9253C106.805 28.3083 107.867 30.1039 108.465 31.8176L115.926 62.1907Z" fill="#B5B5B5" stroke="#B5B5B5" stroke-width="0.2"/>
<path d="M118.235 69.0649L118.212 68.9659L107.503 22.9545C106.756 22.6004 102.905 20.7296 101.683 19.9181C101.683 19.9181 101.683 19.918 101.683 19.918L101.738 19.8347C100.791 19.2075 98.9718 17.6824 97.6195 16.5141L118.235 69.0649ZM118.235 69.0649L118.334 69.0403L118.678 68.9542L118.773 68.9303L118.751 68.8345L107.982 22.6038L107.971 22.5581L107.929 22.5371L107.858 22.5014L118.235 69.0649Z" fill="#B5B5B5" stroke="#B5B5B5" stroke-width="0.2"/>
<path d="M136.291 103.12L136.185 103.061L135.878 102.889L135.795 102.842L135.837 102.757C135.837 102.756 135.838 102.755 135.84 102.752C135.915 102.613 137.514 99.6722 137.646 95.321C137.646 95.321 137.646 95.3209 137.646 95.3209L137.746 95.324C138.011 86.4303 137.887 71.8923 137.824 64.5417L136.291 103.12ZM136.291 103.12L136.327 103.011M136.291 103.12L136.327 103.011M136.327 103.011L136.329 103.007L136.344 102.978C136.358 102.952 136.377 102.915 136.401 102.866C136.45 102.77 136.519 102.628 136.601 102.446C136.766 102.08 136.986 101.549 137.209 100.876C137.656 99.5297 138.116 97.6136 138.178 95.3144C138.448 86.6624 138.326 72.6609 138.261 65.1374C138.258 64.7661 138.255 64.4106 138.252 64.0722L138.252 64.072L138.24 62.9662C138.24 62.966 138.24 62.9658 138.24 62.9656C138.24 61.6755 138.264 60.1269 138.301 58.4794V58.4794C138.35 56.2166 138.399 53.6565 138.35 51.2804C138.289 48.3084 138.141 45.5028 138.009 43.4342C137.943 42.3998 137.88 41.5496 137.835 40.9549C137.812 40.6575 137.793 40.424 137.78 40.2634L137.765 40.0782C137.763 40.0576 137.762 40.0429 137.761 40.033C137.76 40.0203 137.76 40.0156 137.76 40.0169V39.9554V39.9134L137.73 39.884L137.115 39.2814L137.07 39.2368L137.01 39.2592L136.919 39.2933L136.907 39.2964C136.899 39.2987 136.888 39.302 136.874 39.306C136.847 39.3141 136.808 39.326 136.759 39.3409C136.714 39.3549 136.659 39.3719 136.596 39.3913C136.525 39.4133 136.443 39.4385 136.353 39.4661C136.014 39.5704 135.552 39.7113 135.049 39.8579C134.041 40.152 132.88 40.4663 132.225 40.5574L132.225 40.5574C129.509 40.9368 120.519 41.7072 120.138 41.7371C120.037 41.7372 119.478 41.7424 118.792 41.8963C118.098 42.052 117.263 42.3622 116.641 42.9838C115.997 43.6218 115.787 44.2504 115.755 44.7516C115.724 45.2325 115.857 45.5888 115.915 45.7161L118.468 61.4124V61.4289V61.4403L118.471 61.4513C118.491 61.5387 118.61 61.936 118.808 62.3541C118.908 62.5636 119.028 62.7813 119.167 62.969C119.306 63.1552 119.468 63.3187 119.654 63.4118M136.327 103.011L119.564 85.9465C119.639 85.5348 119.751 85.1364 119.875 84.776L119.875 84.7755C120.219 83.7942 121.06 83.0699 122.112 82.8415L122.113 82.8413C123.104 82.6358 124.558 82.0672 125.856 80.5378L125.856 80.5375C127.435 78.6905 128.378 75.9103 128.66 72.2564C128.903 69.0706 127.809 67.0344 126.396 65.73C124.979 64.4218 123.234 63.8429 122.172 63.5925C121.753 63.4967 121.322 63.4725 120.876 63.5086C120.59 63.5334 120.345 63.54 120.142 63.5256C119.942 63.5114 119.776 63.4763 119.654 63.4118M119.654 63.4118C119.653 63.4116 119.653 63.4114 119.652 63.4112L119.699 63.3229L119.655 63.4123C119.654 63.4121 119.654 63.4119 119.654 63.4118ZM137.72 64.0985L137.72 64.0988L122.269 63.1753C121.801 63.0646 121.322 63.0277 120.83 63.0769L120.821 62.9773C120.821 62.9773 120.821 62.9773 120.821 62.9773C120.15 63.0383 119.94 62.9623 119.892 62.9383C119.802 62.8933 119.706 62.8012 119.61 62.6708C119.515 62.5421 119.425 62.3841 119.343 62.2181C119.182 61.8898 119.059 61.5396 118.998 61.3443L116.442 45.5845L116.439 45.5694L116.433 45.5558L116.42 45.5312L116.413 45.5167L116.411 45.5148C116.408 45.5081 116.403 45.4979 116.397 45.4844C116.385 45.4556 116.368 45.4124 116.352 45.3568C116.319 45.2456 116.287 45.0856 116.291 44.8906C116.298 44.5034 116.444 43.9683 117.016 43.3959C117.562 42.8503 118.332 42.5759 118.979 42.4392C119.616 42.3047 120.119 42.306 120.141 42.3061L120.142 42.3061H120.154H120.166V42.3068L120.179 42.3053C120.179 42.3053 120.179 42.3053 120.179 42.3053C120.18 42.3052 120.182 42.3049 120.187 42.3045L120.211 42.3023L120.297 42.2946L120.611 42.2671L120.713 42.2582C120.972 42.2355 121.315 42.2055 121.722 42.1696C122.647 42.0881 123.9 41.9767 125.236 41.8537C127.907 41.6078 130.916 41.3155 132.301 41.1245L132.302 41.1244C132.93 41.0372 133.96 40.7677 134.9 40.4989C135.786 40.2454 136.599 39.9905 136.933 39.8844L137.231 40.1732C137.233 40.1907 137.234 40.2103 137.236 40.232C137.311 41.1572 137.7 45.9675 137.818 51.3093C137.867 53.6682 137.818 56.2242 137.769 58.4873C137.769 58.4873 137.769 58.4873 137.769 58.4873L137.764 58.6996C137.729 60.2688 137.696 61.7541 137.708 62.9918V62.9919L137.72 64.0985Z" fill="#B5B5B5" stroke="#B5B5B5" stroke-width="0.2"/>
<path d="M110.748 109.024V109.126L110.85 109.124C110.876 109.124 110.925 109.123 110.996 109.122C111.814 109.108 115.503 109.047 119.529 108.894C121.717 108.811 124.005 108.701 125.987 108.557C127.966 108.413 129.646 108.235 130.613 108.015L130.614 108.015C132.658 107.541 134.087 106.291 135.004 105.16C135.92 104.029 136.331 103.01 136.341 102.981L136.371 102.89L136.282 102.856L135.962 102.733L135.865 102.695L135.831 102.794C135.832 102.794 135.831 102.795 135.831 102.796C135.827 102.807 135.803 102.864 135.758 102.962C135.708 103.07 135.633 103.224 135.531 103.411C135.327 103.784 135.017 104.288 134.587 104.818C133.728 105.879 132.396 107.04 130.495 107.476L130.495 107.476C129.554 107.695 127.867 107.875 125.857 108.02C123.849 108.165 121.525 108.276 119.314 108.359C114.892 108.525 110.926 108.58 110.848 108.58H110.748V108.68V109.024Z" fill="#B5B5B5" stroke="#B5B5B5" stroke-width="0.2"/>
<path d="M128.801 29.1832L128.801 29.1829L116.815 28.2605L116.808 28.26L116.808 28.2598C116.79 28.2573 116.732 28.2499 116.641 28.2383C116.515 28.2223 116.325 28.1982 116.091 28.1677C115.69 28.1154 115.16 28.0447 114.604 27.9646C113.499 27.8053 112.278 27.6074 111.776 27.4442C110.403 26.9979 108.601 25.899 108.268 25.6962C108.24 25.6791 108.223 25.6684 108.216 25.6649L108.126 25.6133L108.181 25.5251L108.366 25.23L108.414 25.1528L108.495 25.1935C108.501 25.1964 108.514 25.2043 108.525 25.2113C108.527 25.2123 108.528 25.2132 108.53 25.214L108.599 25.2565C108.658 25.2927 108.744 25.3444 108.849 25.4074C109.061 25.5336 109.357 25.7056 109.696 25.8917C110.375 26.2647 111.226 26.6913 111.936 26.9219C112.399 27.0724 113.615 27.268 114.731 27.4269C115.287 27.506 115.814 27.5755 116.205 27.6252C116.4 27.6501 116.561 27.67 116.675 27.6837C116.731 27.6905 116.776 27.6958 116.807 27.6994L116.843 27.7033C116.847 27.7038 116.85 27.704 116.851 27.7042H116.855L116.855 27.7045L128.828 28.6269L128.829 28.6269C129.412 28.676 130.501 28.7527 131.534 28.7803C132.051 28.7941 132.552 28.7956 132.968 28.7754C133.39 28.755 133.709 28.7127 133.873 28.6462L133.877 28.6446L133.877 28.6447C133.955 28.6167 134.006 28.5857 134.036 28.558C134.065 28.5306 134.068 28.5124 134.068 28.5052V28.4969L134.069 28.4969C134.072 28.4574 134.053 28.3927 133.993 28.3021C133.936 28.2148 133.85 28.1173 133.744 28.0163C133.549 27.8294 133.297 27.6399 133.065 27.4931L133.058 27.4981C133.137 27.5452 133.21 27.5985 133.27 27.6581C133.365 27.754 133.436 27.8776 133.42 28.0238C133.402 28.2035 133.272 28.3126 133.132 28.3776C132.992 28.4426 132.82 28.4748 132.67 28.4936C132.669 28.4936 132.669 28.4937 132.669 28.4937L132.656 28.3945C128.981 28.9356 118.617 27.5459 115.532 27.1031L128.801 29.1832ZM128.801 29.1832H128.808C128.828 29.1832 128.925 29.1902 129.086 29.2019C129.112 29.2038 129.14 29.2058 129.169 29.2079C129.377 29.2229 129.659 29.243 129.984 29.263C130.635 29.303 131.461 29.3431 132.214 29.3431C132.614 29.3431 132.996 29.3339 133.321 29.3074C133.643 29.2812 133.92 29.2374 134.107 29.164L134.107 29.1638C134.305 29.0847 134.438 28.9827 134.523 28.8721C134.608 28.7613 134.642 28.647 134.649 28.5497C134.664 28.3579 134.585 28.1691 134.471 27.9991C134.356 27.8279 134.197 27.665 134.033 27.5214C133.706 27.2352 133.345 27.0138 133.224 26.9437M128.801 29.1832L134.168 28.5052M108.561 20.6094C109.299 21.7532 110.258 23.1553 110.762 23.6226C111.401 24.2253 113.134 25.7257 114.118 26.2668C114.573 26.5251 115.077 26.6973 115.605 26.7711C118.679 27.2138 128.993 28.6036 132.632 28.0624C132.727 28.0498 132.799 28.0339 132.853 28.0181C132.82 27.9958 132.778 27.9707 132.73 27.945M108.561 20.6094L108.654 20.5729C108.653 20.5698 108.652 20.5667 108.65 20.5635M108.561 20.6094L108.645 20.5552C108.647 20.558 108.649 20.5608 108.65 20.5635M108.561 20.6094C108.291 19.9207 107.688 19.1582 107.516 18.9614L107.233 19.1582C107.27 19.232 107.701 19.933 108.254 20.7816M108.65 20.5635C109.018 21.1325 109.439 21.764 109.83 22.3115C110.226 22.8642 110.586 23.3235 110.83 23.5493L110.83 23.5498C111.148 23.8494 111.739 24.3735 112.374 24.8902C113.01 25.4082 113.683 25.9134 114.166 26.1792L114.167 26.1799L114.167 26.1799C114.611 26.4319 115.103 26.6 115.619 26.672L115.62 26.6721C117.156 26.8934 120.501 27.3513 123.916 27.6862C127.337 28.0216 130.812 28.2319 132.617 27.9635L132.619 27.9633C132.661 27.9577 132.698 27.9515 132.73 27.945M108.65 20.5635C108.372 19.861 107.765 19.0939 107.591 18.8956L107.532 18.8282L107.459 18.8793L107.176 19.0761L107.105 19.1255L107.144 19.2029C107.165 19.2452 107.285 19.4444 107.465 19.7323C107.646 20.0215 107.89 20.4063 108.165 20.8279M132.73 27.945C132.79 27.9329 132.835 27.92 132.867 27.9085C132.763 27.8443 132.614 27.7715 132.472 27.7181M132.73 27.945C132.645 27.899 132.541 27.8508 132.438 27.8121M132.438 27.8121L132.439 27.8126L132.472 27.7181M132.438 27.8121C132.438 27.812 132.437 27.8118 132.437 27.8117L132.472 27.7181M132.438 27.8121L132.12 27.7019L131.934 27.6374L132.095 27.5252L133.017 26.8857L133.072 26.8481L133.127 26.8831L133.224 26.9437M132.472 27.7181L132.269 27.6479L132.209 27.6896L132.152 27.6074L132.185 27.5129L132.254 27.5368L133.074 26.9679L133.173 27.0293M133.224 26.9437C133.224 26.9434 133.223 26.9431 133.223 26.9428L133.173 27.0293M133.224 26.9437L133.226 26.9446L133.173 27.0293M133.173 27.0293C133.406 27.1646 134.599 27.9026 134.55 28.5421C134.537 28.702 134.439 28.9233 134.07 29.0709C133.726 29.2062 133.013 29.2431 132.214 29.2431C131.034 29.2431 129.672 29.1442 129.091 29.102C128.933 29.0905 128.832 29.0832 128.808 29.0832L116.822 28.1608C116.804 28.1582 116.745 28.1507 116.651 28.1388C115.865 28.0389 112.686 27.635 111.807 27.3491C110.485 26.9193 108.758 25.8773 108.352 25.6299L108.351 25.6311L108.266 25.5781L108.316 25.4913C108.317 25.4918 108.318 25.4925 108.319 25.4933L108.45 25.2829C108.452 25.2839 108.465 25.2919 108.489 25.3061C108.773 25.4804 110.575 26.585 111.905 27.017C112.852 27.3245 116.81 27.8042 116.847 27.8042L128.821 28.7266C129.989 28.825 133.185 29.034 133.91 28.7389C134.082 28.6774 134.168 28.5913 134.168 28.5052M134.168 28.5052C134.193 28.21 133.566 27.6812 133.062 27.3737L134.168 28.5052ZM108.165 20.8279C108.21 20.9434 108.24 21.0428 108.252 21.1237C108.264 21.2089 108.255 21.2594 108.24 21.2865L108.24 21.2865L108.239 21.2879C108.148 21.4592 107.964 21.7904 107.802 22.0813C107.721 22.2265 107.646 22.3616 107.592 22.4611C107.564 22.5109 107.542 22.552 107.526 22.5812C107.518 22.5957 107.512 22.6078 107.507 22.6166L107.501 22.629C107.5 22.6308 107.499 22.6337 107.498 22.6369C107.497 22.6384 107.496 22.6414 107.495 22.6452L107.495 22.6453C107.494 22.6465 107.49 22.6593 107.49 22.6756V22.7342L107.541 22.7629L107.848 22.935L107.94 22.9863L107.987 22.8925C107.994 22.8784 108.05 22.7756 108.13 22.6288C108.178 22.5412 108.234 22.4378 108.294 22.3284C108.429 22.0809 108.579 21.8046 108.677 21.6172C109.314 22.5756 110.017 23.5471 110.435 23.9413C110.652 24.1459 111.228 24.664 111.891 25.2095C112.551 25.7538 113.304 26.3308 113.872 26.6492L108.165 20.8279ZM108.165 20.8279C108.163 20.8248 108.162 20.8218 108.161 20.8188L108.254 20.7816M108.165 20.8279C108.166 20.8307 108.168 20.8334 108.17 20.8362L108.254 20.7816M108.165 20.8279L108.328 21.3351C108.389 21.2244 108.352 21.0276 108.254 20.7816" fill="#B5B5B5" stroke="#B5B5B5" stroke-width="0.2"/>
<path d="M102.531 8.49652C101.918 7.68339 101.093 7.03281 100.142 6.63232C100.142 6.6323 100.142 6.63227 100.142 6.63225L95.7292 4.75073L95.5563 4.67701L95.5918 4.86159L95.6533 5.18136L95.6535 5.18264C95.6958 5.38789 95.726 5.60233 95.741 5.77677C95.7485 5.86408 95.7521 5.93999 95.7518 5.99895C95.7516 6.02847 95.7504 6.0525 95.7485 6.07091C95.7483 6.07307 95.748 6.07512 95.7478 6.07706C95.7277 6.0901 95.6893 6.11228 95.6214 6.14277C95.5072 6.19403 95.3153 6.26632 94.9984 6.35776L94.9979 6.3579C94.8008 6.4159 94.5775 6.4399 94.3504 6.43993C94.3503 6.43993 94.3501 6.43993 94.35 6.43993L69.481 6.26775H69.4803C69.1182 6.26775 68.7562 6.16246 68.4532 5.96429L68.4532 5.96429L68.4522 5.96363C68.3567 5.90285 68.3125 5.78092 68.3564 5.66606C68.3565 5.66595 68.3565 5.66583 68.3566 5.66571L68.6759 4.85475L68.7595 4.64247L68.5468 4.72486L65.1171 6.05302C65.1171 6.05304 65.117 6.05306 65.117 6.05308C63.5613 6.65076 62.2424 7.69661 61.2847 9.06531L61.2842 9.06601C60.475 10.2435 59.4128 11.7999 59.0278 12.5577C58.5561 13.4768 57.8898 15.4655 57.4113 16.9629C57.1083 17.8844 56.6115 18.7447 55.9458 19.4591L55.9458 19.4591L55.9449 19.4601L55.822 19.5953L55.796 19.6239V19.6626V20.1914C55.796 20.8516 55.9991 21.4984 56.3789 22.0557L56.433 22.1351L95.1245 6.7859M102.531 8.49652C103.71 10.0442 105.215 12.1175 105.749 13.1475L105.749 13.1478C106.092 13.8159 106.547 15.2403 106.919 16.5106C107.264 17.6855 107.542 18.7401 107.602 18.9695C107.608 18.9889 107.611 19.0024 107.613 19.0096L107.639 19.1069L107.541 19.1322L107.21 19.2183L107.112 19.2436L107.087 19.1457L107.087 19.1456L107.087 19.1453L107.087 19.1443L107.086 19.1409L107.083 19.1294L107.072 19.0879L107.033 18.9375C106.999 18.8091 106.95 18.6268 106.89 18.4053C106.77 17.9624 106.603 17.3631 106.417 16.7251C106.043 15.4447 105.59 14.0222 105.264 13.3868L105.264 13.3866C104.997 12.8652 104.445 12.0406 103.836 11.1837C103.228 10.3287 102.568 9.4472 102.089 8.81408C101.522 8.06557 100.774 7.48615 99.9169 7.12398L99.9167 7.12387L96.2693 5.57014C96.2863 5.70486 96.2971 5.83771 96.2971 5.95728C96.2971 6.04331 96.2916 6.12508 96.2776 6.19705C96.264 6.26776 96.2408 6.33677 96.2003 6.39083L96.1984 6.39334L96.1984 6.3933C96.1671 6.4324 96.1144 6.49714 95.961 6.58144C95.812 6.66336 95.5675 6.76413 95.1525 6.8819M102.531 8.49652C102.531 8.49645 102.531 8.49639 102.531 8.49632L102.451 8.55691L102.531 8.49673C102.531 8.49666 102.531 8.49659 102.531 8.49652ZM95.1525 6.8819C95.1523 6.88196 95.1521 6.88203 95.1518 6.8821L95.1245 6.7859M95.1525 6.8819C95.1528 6.88182 95.153 6.88175 95.1533 6.88168L95.1245 6.7859M95.1525 6.8819C94.8944 6.95927 94.626 6.98429 94.35 6.98429H94.3493L69.4803 6.81211V6.71211M95.1245 6.7859C94.8787 6.85969 94.6205 6.88429 94.35 6.88429L69.4803 6.71211M69.4803 6.71211L69.4796 6.81211L69.48 6.81211M69.4803 6.71211C69.0254 6.71211 68.5952 6.57682 68.2141 6.33085M68.5829 4.81812L68.4561 4.86722L68.4898 4.78148L68.5829 4.81812ZM68.5829 4.81812L68.5331 4.94465L68.619 4.91137L68.5829 4.81812ZM56.7565 21.8149L56.675 21.8728C56.6739 21.8712 56.6727 21.8696 56.6716 21.868L56.7565 21.8149ZM56.7565 21.8149L56.7035 21.7301L56.7001 21.7322C56.7184 21.7601 56.7372 21.7876 56.7565 21.8149ZM69.48 6.81211L65.2759 6.46614M69.48 6.81211C69.0052 6.81204 68.5568 6.67078 68.1609 6.41556M69.48 6.81211L67.8109 5.5891M68.2141 6.33085C67.9465 6.16792 67.8331 5.8398 67.9258 5.54448L67.8109 5.5891M68.2141 6.33085L68.1598 6.41487C68.1602 6.4151 68.1606 6.41533 68.1609 6.41556M68.2141 6.33085L68.1621 6.41626C68.1617 6.41603 68.1613 6.41579 68.1609 6.41556M67.8109 5.5891C67.8195 5.54826 67.8314 5.50775 67.8466 5.46795L65.2759 6.46614M67.8109 5.5891C67.7445 5.90533 67.8756 6.24111 68.1609 6.41556M65.2759 6.46614L65.3124 6.55924L65.3121 6.55936L65.2759 6.46614ZM56.3525 19.8235L56.3603 19.8287L56.356 19.8352C56.3548 19.8365 56.3537 19.8377 56.3525 19.839M56.3525 19.8235V19.8102H56.3325M56.3525 19.8235V19.839M56.3525 19.8235L56.3325 19.8102M56.3325 19.8102L56.2771 19.7733L56.3172 19.8102M56.3325 19.8102H56.3172M56.3172 19.8102H56.2525L56.3357 19.8656L56.3525 19.8404V19.839M56.3172 19.8102L56.3507 19.8409C56.3513 19.8403 56.3519 19.8397 56.3525 19.839M96.1449 5.40845C96.1511 5.44713 96.157 5.48593 96.1623 5.52459L96.2533 5.45462L96.1449 5.40845Z" fill="#B5B5B5" stroke="#B5B5B5" stroke-width="0.2"/>
<path d="M132.915 27.4983H133.015V27.3983V26.5743V26.5527L133.006 26.5331L132.785 26.0435L132.891 25.3472L132.892 25.3397V25.3321V23.1798V23.1624L132.886 23.146L132.787 22.8686L132.889 22.5059L132.892 22.4926V22.4788V21.7778V21.7689L132.891 21.7602L132.768 21.0726C132.768 21.0724 132.768 21.0722 132.768 21.072C132.741 20.9094 132.545 20.4597 131.261 19.8668C129.97 19.2709 127.557 18.5189 123.035 17.7682C118.047 16.9375 115.21 16.8253 113.595 16.9616C112.019 17.0947 111.579 17.4671 111.456 17.671L110.653 18.511L110.626 18.54V18.5801V19.0177L110.422 19.5792L110.417 19.5957V19.6132V20.0845L110.19 20.39L110.171 20.4166V20.4495V21.2733L109.857 21.4301L109.824 21.4464L109.81 21.48L109.392 22.4516L109.352 22.544L109.445 22.5832L109.765 22.7185L109.856 22.7573L109.895 22.6658L110.25 21.8385L110.66 21.6336L110.715 21.6059V21.5441V20.6301L110.941 20.3246L110.961 20.2981V20.2651V19.7168L111.164 19.1553L111.17 19.1388V19.1213V18.7924L111.904 18.0219L111.92 18.0057L111.927 17.9845L111.935 17.9593C111.94 17.9535 111.95 17.9438 111.966 17.931C112.002 17.9019 112.069 17.858 112.185 17.809C112.417 17.7107 112.838 17.5939 113.583 17.5299C115.074 17.4018 117.843 17.4864 122.941 18.3344L122.941 18.3344C127.308 19.0595 129.635 19.7742 130.87 20.3122C131.487 20.581 131.829 20.8044 132.016 20.9604C132.11 21.0383 132.164 21.0989 132.194 21.1393C132.21 21.1595 132.219 21.1748 132.225 21.1847C132.227 21.188 132.228 21.1908 132.229 21.193L132.348 21.8119V22.4047L132.228 22.8721L132.221 22.9012L132.231 22.9296L132.348 23.2704V25.2877L132.226 26.092L132.222 26.1213L132.234 26.1483L132.471 26.6697V27.3983V27.4983H132.571H132.915Z" fill="#B5B5B5" stroke="#B5B5B5" stroke-width="0.2"/>
<path d="M121.147 20.4499L121.147 20.4499C116.811 19.7731 114.527 19.1136 113.324 18.5903C112.723 18.3288 112.386 18.0987 112.198 17.9127C112.009 17.7255 111.965 17.5776 111.965 17.4855V17.3855H112.065H112.41V17.4486L112.507 17.4367C112.506 17.4351 112.506 17.4343 112.506 17.4343C112.506 17.4342 112.53 17.5001 112.676 17.6184C112.837 17.7492 113.143 17.9392 113.713 18.1708C114.855 18.6338 117.044 19.2566 121.227 19.908M121.227 19.908L121.212 20.0068L121.227 19.908ZM121.227 19.908C126.21 20.6825 128.915 20.866 130.376 20.8522C131.106 20.8453 131.522 20.7891 131.755 20.7344C131.97 20.6839 132.022 20.6362 132.022 20.6361C132.022 20.6361 132.022 20.6364 132.021 20.6371L132.08 20.6962M132.08 20.6962V20.6962Z" fill="#B5B5B5" stroke="#B5B5B5" stroke-width="0.2"/>
<path d="M134.621 28.4735L134.595 28.377L134.499 28.4033L134.167 28.4938L134.07 28.5201L134.096 28.6166L137.228 40.1145L137.254 40.211L137.351 40.1847L137.683 40.0942L137.779 40.0679L137.753 39.9714L134.621 28.4735Z" fill="#B5B5B5" stroke="#B5B5B5" stroke-width="0.2"/>
<path d="M119.267 79.5154L119.267 79.5154L119.267 79.5177C119.254 80.0354 119.435 80.5282 119.798 80.9166C120.161 81.3059 120.642 81.5141 121.174 81.5141C121.986 81.5141 122.759 81.2095 123.355 80.677C124.527 79.6296 125.968 77.7127 126.203 74.4973L126.203 74.4972C126.403 71.7414 125.106 69.7596 123.988 68.5915C123.292 67.858 122.307 67.4413 121.297 67.4413C120.481 67.4413 119.81 68.0863 119.771 68.9016L119.771 68.9017L119.267 79.5154ZM120.315 68.9234H120.315L120.315 68.923C120.337 68.3989 120.772 67.9856 121.297 67.9856C122.167 67.9856 123.001 68.3434 123.597 68.9633C124.643 70.058 125.841 71.9011 125.66 74.4583C125.441 77.5032 124.091 79.3002 123.001 80.2694L123 80.27C122.502 80.7205 121.85 80.9698 121.174 80.9698C120.796 80.9698 120.453 80.8214 120.189 80.5456C119.924 80.2695 119.788 79.9151 119.811 79.5385L119.811 79.5372L120.315 68.9234Z" fill="#B5B5B5" stroke="#B5B5B5" stroke-width="0.2"/>
<path d="M127.077 74.207C127.077 70.1449 124.902 67.8557 123.608 66.8597C123.025 66.4029 122.277 66.15 121.518 66.15H120.621C119.682 66.15 118.899 66.906 118.886 67.8472C118.886 67.8473 118.886 67.8474 118.886 67.8474L118.812 71.9917L118.81 72.0899L118.909 72.0934L119.253 72.1057L119.355 72.1093L119.356 72.0076L119.43 67.8629L119.43 67.8629C119.441 67.2166 119.975 66.6944 120.621 66.6944H121.518C122.16 66.6944 122.778 66.9082 123.277 67.2885C124.491 68.2362 126.52 70.3745 126.532 74.2074C126.532 77.4225 125.17 79.4643 124.017 80.6179C123.323 81.3122 122.353 81.7078 121.371 81.7078H119.17H119.07V81.8078V82.1522V82.2522H119.17H121.371C122.516 82.2522 123.598 81.8115 124.404 81.0053C125.623 79.7856 127.089 77.6091 127.077 74.207ZM127.077 74.207C127.077 74.207 127.077 74.2069 127.077 74.2069L126.977 74.2072H127.077C127.077 74.2072 127.077 74.2071 127.077 74.207ZM119.256 72.0058L119.156 72.0022L119.156 72.004L119.256 72.0058ZM119.256 72.0058L119.26 71.9058L119.258 71.9058L119.256 72.0058Z" fill="#B5B5B5" stroke="#B5B5B5" stroke-width="0.2"/>
<path d="M95.0864 6.53035L95.0892 6.63436L95.193 6.62743L95.5618 6.60283L95.6578 6.59644L95.6552 6.50036L95.6429 6.04531L95.6428 6.04409C95.6175 5.39844 95.271 4.81412 94.7236 4.48461L94.4614 3.0061C94.4613 3.00595 94.4613 3.00579 94.4613 3.00564C94.3441 2.30338 93.8373 1.7453 93.1639 1.53756C93.1636 1.53745 93.1632 1.53733 93.1628 1.53721L92.9875 1.47873V1.39911V1.35771L92.9582 1.32842L91.9502 0.319929L91.9209 0.290625H91.8794H90.6993C89.6728 0.290625 88.829 1.13485 88.829 2.16163V3.2669H75.6537V2.4445C75.6537 1.25783 74.6869 0.290625 73.5007 0.290625H72.5787H72.5485L72.5234 0.307271L71.5399 0.959099L71.4952 0.988761V1.04245V1.50333L71.2814 1.57461C70.705 1.75836 70.2851 2.24406 70.1932 2.84743C70.1932 2.84749 70.1932 2.84755 70.1932 2.84762L70.002 4.07906L69.7705 4.28858C69.7705 4.28864 69.7704 4.2887 69.7703 4.28876C69.2822 4.72581 68.9996 5.35542 68.9996 6.01111V6.51535V6.61535H69.0996H69.4438H69.5438V6.51535V6.01111C69.5438 5.51195 69.7644 5.0343 70.1377 4.69569C70.1378 4.69561 70.1379 4.69553 70.138 4.69545L70.4816 4.38848L70.5085 4.36444L70.5139 4.32877L70.7229 2.93902L70.7229 2.93902L70.723 2.93828C70.7588 2.68758 70.8881 2.46469 71.0772 2.30496V2.4199C71.0772 2.63098 71.1985 2.81575 71.3964 2.89331C71.596 2.98399 71.8111 2.93565 71.9609 2.78577C71.961 2.78577 71.961 2.78577 71.961 2.78577L72.0101 2.73657L72.0394 2.70729V2.66588V1.30504L72.7073 0.859585H73.5007C74.3797 0.859585 75.0972 1.57729 75.0972 2.4568V3.72356V3.82356H75.1972H89.2732H89.3732V3.72356V2.18623C89.3732 1.4543 89.9678 0.859585 90.6993 0.859585H91.6905L92.431 1.60041V2.38301V2.43106L92.4685 2.46108L92.53 2.51027L92.5925 2.4322L92.53 2.51028C92.6809 2.63102 92.8793 2.66184 93.0612 2.586C93.2174 2.5209 93.3189 2.3891 93.3478 2.23151C93.6444 2.42789 93.8602 2.74445 93.9198 3.11233L93.92 3.11346L94.215 4.81067L94.2237 4.8604L94.2688 4.88298L94.3426 4.91987L94.3873 4.83044L94.3426 4.91987C94.7767 5.13705 95.0627 5.58326 95.0741 6.07493L95.0741 6.0753L95.0864 6.53035Z" fill="#B5B5B5" stroke="#B5B5B5" stroke-width="0.2"/>
<path d="M56.816 39.4511C56.816 40.6009 57.7582 41.5435 58.9076 41.5435C60.0569 41.5435 60.9991 40.6009 60.9991 39.4511C60.9991 38.3014 60.0569 37.3587 58.9076 37.3587C57.7582 37.3587 56.816 38.3014 56.816 39.4511ZM57.3725 39.4511C57.3725 38.608 58.0536 37.9154 58.9076 37.9154C59.7497 37.9154 60.4426 38.6085 60.4426 39.4511C60.4426 40.2937 59.7497 40.9868 58.9076 40.9868C58.0654 40.9868 57.3725 40.2937 57.3725 39.4511Z" fill="#B5B5B5" stroke="#B5B5B5" stroke-width="0.2"/>
<path d="M103.285 39.4511C103.285 40.6009 104.227 41.5435 105.377 41.5435C106.526 41.5435 107.468 40.6009 107.468 39.4511C107.468 38.3014 106.526 37.3587 105.377 37.3587C104.227 37.3587 103.285 38.3014 103.285 39.4511ZM103.842 39.4511C103.842 38.608 104.523 37.9154 105.377 37.9154C106.219 37.9154 106.912 38.6085 106.912 39.4511C106.912 40.2937 106.219 40.9868 105.377 40.9868C104.535 40.9868 103.842 40.2937 103.842 39.4511Z" fill="#B5B5B5" stroke="#B5B5B5" stroke-width="0.2"/>
<path d="M7.89326 113.968L7.89201 113.968C7.41477 113.857 7.0482 113.784 6.76774 113.735C5.30373 113.525 4.40949 112.491 3.88001 111.496C3.35777 110.514 3.18078 109.553 3.1573 109.402C3.15435 109.391 3.14986 109.375 3.14392 109.354C2.96883 108.724 1.53888 103.581 1.37283 99.8913C0.966819 91.105 0.653226 62.1995 0.570366 54.5619C0.557917 53.4144 0.550676 52.7469 0.549113 52.7L0.549002 52.6967C0.549011 52.6968 0.549049 52.6968 0.549048 52.6967C0.549045 52.696 0.548858 52.6918 0.548359 52.6814L0.546138 52.6371L0.545781 52.6301C0.543916 52.5935 0.54141 52.5444 0.538608 52.4861C0.532638 52.3618 0.52531 52.1955 0.519907 52.0187C0.509255 51.6701 0.505433 51.2658 0.538081 51.0694C0.538095 51.0693 0.538109 51.0692 0.538124 51.0691L0.636764 51.0856C0.689988 50.7555 0.982859 50.0196 1.10036 49.7244C1.11856 49.6786 1.13255 49.6435 1.1408 49.622L7.89326 113.968ZM7.89326 113.968L7.97032 113.985C9.38716 114.293 11.5772 114.77 14.1965 114.77C14.6654 114.77 15.1343 114.757 15.6275 114.733L15.629 114.733M7.89326 113.968L15.629 114.733M22.0349 113.403L22.0356 113.403C23.1296 113.22 24.1502 112.843 25.0612 112.297C25.3176 112.138 25.4967 112.018 25.6262 111.912C25.9288 111.646 26.4773 111.061 27.2891 110.175C28.6686 108.646 30.5331 107.626 32.5353 107.315M22.0349 113.403L33.3129 107.784C33.3128 107.784 33.3127 107.784 33.3126 107.784M22.0349 113.403C20.5502 113.661 18.2057 113.992 15.5788 114.176C12.4247 114.392 9.75194 113.809 8.10756 113.45L8.01077 113.428C8.01053 113.428 8.0103 113.428 8.01006 113.428L22.0349 113.403ZM32.5353 107.315L32.5507 107.413L32.5349 107.315C32.535 107.315 32.5352 107.315 32.5353 107.315ZM32.5353 107.315C32.845 107.265 33.0966 107.24 33.3129 107.24H33.3132C35.4545 107.246 40.0605 107.412 44.1459 107.576C46.1891 107.659 48.1028 107.741 49.5141 107.802C50.0447 107.825 50.5044 107.845 50.8732 107.861L51.2077 107.876L51.6844 107.897L51.8148 107.902L51.8508 107.903C51.8604 107.904 51.8638 107.904 51.8637 107.904H51.9674L51.9637 108.007L51.9514 108.352L51.9476 108.457L51.8431 108.448L51.842 108.448L51.8394 108.448L51.8289 108.447L51.7924 108.445L51.6611 108.439C51.5485 108.433 51.3872 108.426 51.1829 108.416C50.7743 108.398 50.1938 108.372 49.4881 108.341C48.0765 108.279 46.1639 108.197 44.1225 108.116C40.039 107.953 35.4432 107.79 33.3126 107.784M33.3126 107.784C33.1362 107.784 32.909 107.808 32.6293 107.856L32.6275 107.857C30.7579 108.148 29.0082 109.108 27.7076 110.543L33.3126 107.784ZM15.629 114.733C18.2889 114.56 20.6406 114.215 22.1428 113.956L15.629 114.733ZM1.60119 45.3723C1.30422 47.4202 1.07891 49.2843 1.04291 49.5979L19.4736 25.208C16.9929 25.4303 14.6226 26.0107 12.4247 26.9248L12.4241 26.925C11.7843 27.1958 11.2973 27.4325 10.9939 27.6349L10.9933 27.6353C10.5651 27.9251 9.88236 28.5598 8.97271 29.5313C7.4178 31.1733 6.0728 33.025 4.97464 35.0371L4.97452 35.0373C4.11552 36.621 2.99133 38.7703 2.60672 39.9866C2.27795 41.0231 1.90198 43.2981 1.60119 45.3723ZM48.4809 22.5643L19.4738 25.208L6.83268 113.292L6.84683 113.193C6.84648 113.193 6.84613 113.193 6.84578 113.193C5.55985 113.009 4.77342 112.06 4.30498 111.132C4.07135 110.669 3.91944 110.216 3.82596 109.876C3.77926 109.706 3.74726 109.565 3.72699 109.465C3.71686 109.416 3.70968 109.376 3.70508 109.349C3.70277 109.336 3.70115 109.326 3.70013 109.319L3.6995 109.314V109.295V109.285L3.69755 109.276C3.69638 109.27 3.68634 109.233 3.6687 109.169C3.45194 108.382 2.08789 103.431 1.92913 99.8576L1.92913 99.8575C1.46209 89.7505 1.10557 53.0533 1.10557 52.6721H1.10584L1.1053 52.6647C1.09316 52.5008 1.07786 52.186 1.07174 51.8769C1.06554 51.5637 1.06919 51.2697 1.0918 51.1396L1.09192 51.1389C1.11471 51.0021 1.20336 50.7311 1.30544 50.4511C1.40576 50.1758 1.51497 49.9026 1.57567 49.7627L1.58676 49.7405L1.59731 49.7194V49.6958V49.6779C1.60026 49.6554 1.60747 49.5973 1.6185 49.5083C1.64411 49.3018 1.69036 48.9289 1.75208 48.4479C1.84694 47.7088 1.97903 46.7085 2.13107 45.6453C2.43573 43.5148 2.81887 41.1442 3.14172 40.1082C3.43347 39.184 4.24008 37.5073 5.46968 35.2562C6.54769 33.2954 7.85816 31.4699 9.37632 29.8653L9.37673 29.8649C10.2615 28.9183 10.9188 28.3106 11.3025 28.0467C11.5645 27.8679 12.012 27.6374 12.6364 27.3801L12.6368 27.38C14.7783 26.4863 17.1041 25.9228 19.5164 25.7023L48.5244 23.0954H48.5445H48.5544L48.5641 23.0935C48.6846 23.0694 51.5439 22.4778 52.5469 22.1433L52.5473 22.1432C52.7847 22.0629 53.1271 21.8879 53.5034 21.674C53.8818 21.459 54.3009 21.2009 54.6942 20.9506C55.3837 20.5119 55.997 20.0952 56.1741 19.9749C56.199 19.958 56.2153 19.9469 56.222 19.9425L56.3068 19.8859L56.2486 19.8022L56.0519 19.5193L55.9836 19.4211L55.9037 19.5011L55.9013 19.5028L55.8778 19.5195C55.8569 19.5341 55.8268 19.555 55.7882 19.5814C55.7113 19.6342 55.6015 19.7088 55.4677 19.7985C55.2 19.9781 54.8364 20.2182 54.4469 20.4668C54.0572 20.7154 53.6423 20.972 53.2715 21.1846C52.8986 21.3984 52.5773 21.5638 52.3722 21.6341C51.4533 21.9486 48.709 22.5183 48.4809 22.5643Z" fill="#B5B5B5" stroke="#B5B5B5" stroke-width="0.2"/>
<path d="M43.9455 87.1707L43.9228 87.0686L43.9228 87.0683L43.9226 87.0675L43.922 87.0651L43.9201 87.0568L43.9134 87.0284L43.8895 86.9266C43.869 86.8393 43.8397 86.7137 43.803 86.5538C43.7296 86.2339 43.6265 85.7767 43.5046 85.2131C43.2606 84.0859 42.9411 82.5331 42.6327 80.8029C42.0165 77.3455 41.4428 73.169 41.6095 70.2658C41.8007 66.9215 42.9835 61.7777 44.1205 57.4601C44.6893 55.2998 45.2474 53.3437 45.6656 51.9193C45.8747 51.2071 46.0488 50.6278 46.1718 50.2223C46.2333 50.0195 46.282 49.8602 46.3159 49.7495L46.3554 49.6205L46.3663 49.5849L46.3694 49.5747C46.3702 49.5719 46.3704 49.571 46.3704 49.5712C46.3721 49.5651 46.3769 49.5496 46.3843 49.5256C46.4528 49.3024 46.7493 48.3366 46.9913 47.1576C47.1267 46.4976 47.2438 45.7759 47.292 45.0903C47.3403 44.4034 47.3188 43.7598 47.1817 43.2529L47.1815 43.252C46.9603 42.402 46.1974 41.9022 45.4593 41.6135C45.0928 41.4702 44.7392 41.3817 44.4754 41.329C44.3436 41.3027 44.2346 41.2855 44.1581 41.2748C44.1198 41.2695 44.0898 41.2658 44.0691 41.2635L44.0456 41.261C44.0416 41.2606 44.0401 41.2605 44.0401 41.2605C44.0401 41.2605 44.0422 41.2606 44.0451 41.2606C44.0436 41.2606 44.0334 41.2602 44.0154 41.2594C43.9406 41.2561 43.7307 41.2469 43.4448 41.2389C43.085 41.2287 42.5953 41.2199 42.0699 41.2253C41.5442 41.2306 40.984 41.2502 40.4826 41.2965C39.9787 41.3431 39.5434 41.416 39.2621 41.5244C38.9779 41.6359 38.5369 41.9224 38.0269 42.2993C37.5198 42.6741 36.9537 43.1311 36.4227 43.5756C35.8919 44.0199 35.3971 44.4509 35.0325 44.7731C34.8503 44.9342 34.7007 45.0681 34.5956 45.1628C34.543 45.2102 34.5016 45.2477 34.4727 45.274L34.4393 45.3045C34.4303 45.3128 34.4277 45.3152 34.4285 45.3145L34.4215 45.3215L34.4133 45.327L34.3764 45.3516L34.362 45.3612L34.3452 45.3654L34.2964 45.3776C34.2859 45.3804 34.2686 45.3845 34.2503 45.3886C34.223 45.3949 34.1839 45.4036 34.1333 45.4145C34.0321 45.4363 33.8848 45.4669 33.6949 45.5037C33.3152 45.5774 32.7652 45.6761 32.0737 45.7793C30.6907 45.9857 28.7415 46.2106 26.4566 46.2907L26.4562 46.2907C23.7008 46.3769 20.5524 46.3769 17.5043 46.3769H17.5034C13.4054 46.3769 9.55465 46.3771 7.79264 46.6096C6.35152 46.8096 4.7837 47.6118 3.5649 48.374C2.95693 48.7543 2.43867 49.1227 2.07014 49.3977C1.88591 49.5351 1.73917 49.6491 1.63741 49.7295C1.58653 49.7697 1.54688 49.8014 1.51934 49.8236L1.48701 49.8496L1.48548 49.8508C1.48043 49.8549 1.47207 49.8616 1.46671 49.8652L1.39124 49.9155L1.33382 49.8453L1.11253 49.5747L1.04982 49.498L1.12591 49.4346C1.20132 49.3717 2.08739 48.6336 3.33311 47.8599C4.57645 47.0877 6.18923 46.2729 7.71661 46.0671C7.71665 46.0671 7.71669 46.0671 7.71672 46.0671L7.73008 46.1662C9.52493 45.9202 13.3974 45.9202 17.5034 45.9202C20.5399 45.9202 23.687 45.9202 26.4408 45.8341L43.9455 87.1707ZM43.9455 87.1707L44.0465 87.1435M43.9455 87.1707L44.0465 87.1435M44.0465 87.1435L44.3661 87.0574L44.4585 87.0325L44.4377 86.9391C44.437 86.9358 44.434 86.923 44.4288 86.9013C44.3474 86.556 43.7317 83.9452 43.1539 80.7124C42.5392 77.2733 41.9697 73.1421 42.1288 70.2894C42.3125 66.9864 43.4838 61.8825 44.6181 57.5802C45.1849 55.4307 45.7416 53.4838 46.1598 52.0659C46.3689 51.357 46.5433 50.7803 46.6669 50.3768C46.7288 50.175 46.7779 50.0165 46.8123 49.9064C46.8295 49.8514 46.843 49.8085 46.8526 49.7783L46.8639 49.743L46.8672 49.7331L46.8681 49.7302C46.8682 49.7299 46.8683 49.7299 46.8682 49.7301L46.8684 49.7295M44.0465 87.1435L46.8684 49.7295M46.8684 49.7295C46.9008 49.6389 47.2524 48.5427 47.5238 47.1928M46.8684 49.7295L47.5238 47.1928M47.5238 47.1928C47.7942 45.8478 47.9899 44.2283 47.6946 43.103L47.5238 47.1928Z" fill="#B5B5B5" stroke="#B5B5B5" stroke-width="0.2"/>
<path d="M3.11293 108.928L3.05058 109.013L3.13787 109.071C3.13786 109.071 3.14014 109.073 3.14965 109.079L3.18408 109.103C3.21376 109.123 3.2567 109.152 3.31264 109.188C3.42452 109.261 3.5883 109.362 3.80177 109.483C4.2287 109.725 4.85449 110.044 5.66144 110.363C7.27535 111 9.61438 111.634 12.5364 111.634C15.1101 111.634 17.819 111.461 20.5647 111.104C23.7449 110.695 26.6658 109.321 29.0047 107.105L29.005 107.105C29.5265 106.607 30.1087 106.195 30.7028 105.879C31.0133 105.724 31.1911 105.664 31.2717 105.641C31.3728 105.619 31.5446 105.605 31.7611 105.597C31.9774 105.59 32.2315 105.59 32.4903 105.593C33.008 105.601 33.5411 105.626 33.8222 105.644L33.8222 105.644L33.8242 105.644L50.3713 106.394L50.4721 106.399L50.4757 106.298L50.488 105.954L50.4915 105.855L50.3926 105.85L33.8492 105.1C33.8104 105.096 33.668 105.087 33.474 105.077C33.2644 105.067 32.9869 105.056 32.694 105.049C32.4012 105.042 32.092 105.039 31.8193 105.046C31.5489 105.053 31.307 105.069 31.1525 105.102L31.1525 105.102L31.1509 105.102C30.9777 105.142 30.7462 105.246 30.4525 105.393L30.4525 105.393L30.4504 105.394C29.8151 105.731 29.193 106.179 28.6334 106.714C26.3869 108.839 23.5668 110.17 20.5022 110.561C17.7771 110.905 15.089 111.077 12.5364 111.077C6.96377 111.077 3.59675 108.719 3.46184 108.625C3.45966 108.623 3.45833 108.622 3.45784 108.622L3.37855 108.569L3.32192 108.646L3.11293 108.928Z" fill="#B5B5B5" stroke="#B5B5B5" stroke-width="0.2"/>
<path d="M10.3717 56.8782C10.3717 58.9779 11.737 60.717 13.4713 60.717C15.2056 60.717 16.5709 58.9779 16.5709 56.8782C16.5709 54.7782 15.1931 53.0394 13.4713 53.0394C11.7495 53.0394 10.3717 54.7782 10.3717 56.8782ZM10.9159 56.8782C10.9159 55.0398 12.0851 53.5838 13.4713 53.5838C14.8575 53.5838 16.0267 55.0398 16.0267 56.8782C16.0267 58.7166 14.8575 60.1726 13.4713 60.1726C12.0851 60.1726 10.9159 58.7166 10.9159 56.8782Z" fill="#B5B5B5" stroke="#B5B5B5" stroke-width="0.2"/>
<path d="M17.588 36.8437C17.588 39.0112 19.8331 40.7316 22.5316 40.7316C25.2302 40.7316 27.4753 39.0112 27.4753 36.8437C27.4753 34.6761 25.2302 32.9557 22.5316 32.9557C19.8331 32.9557 17.588 34.6761 17.588 36.8437ZM18.1322 36.8437C18.1322 35.9282 18.6161 35.0945 19.4114 34.4864C20.2069 33.8783 21.3099 33.5 22.5316 33.5C23.7531 33.5 24.8562 33.8813 25.6517 34.491C26.4473 35.1007 26.931 35.9344 26.931 36.8437C26.931 37.7529 26.4473 38.5867 25.6517 39.1963C24.8562 39.806 23.7531 40.1873 22.5316 40.1873C21.3099 40.1873 20.2069 39.809 19.4114 39.2009C18.6161 38.5929 18.1322 37.7591 18.1322 36.8437Z" fill="#B5B5B5" stroke="#B5B5B5" stroke-width="0.2"/>
<path d="M1.80915 46.6282L1.75564 46.5364L1.58353 46.2412L1.53436 46.1569L1.6175 46.1057C1.69997 46.0549 2.68564 45.4819 3.82736 44.8877C4.39846 44.5905 5.00985 44.2873 5.56771 44.0413C6.12341 43.7962 6.63328 43.6045 6.99874 43.5345C6.99876 43.5345 6.99878 43.5345 6.99879 43.5345L7.01759 43.6327C11.2108 42.8279 14.7151 42.9299 16.8354 42.9916L1.80915 46.6282ZM1.80915 46.6282L1.89751 46.5692C1.89719 46.5694 1.8987 46.5686 1.9023 46.5664C1.90866 46.5627 1.92157 46.5551 1.94245 46.5429C1.97278 46.5252 2.01649 46.4998 2.07204 46.4679C2.18312 46.404 2.3414 46.3136 2.53453 46.205C2.92083 45.9878 3.4463 45.6977 4.01228 45.4C4.57844 45.1022 5.18424 44.7973 5.73144 44.5502C6.28069 44.3021 6.76311 44.1159 7.08598 44.0507M1.80915 46.6282L7.06677 43.9525M16.8917 42.8932C17.0686 42.897 17.2376 42.9019 17.3978 42.9065C17.7651 42.9171 18.0861 42.9263 18.349 42.9179L18.3522 42.9178V42.9178H18.3534C18.6107 42.9178 18.8587 42.9178 19.1071 42.9302L19.1087 42.9303C20.0342 42.9917 22.8353 43.1203 25.6988 42.7128C27.1306 42.5091 28.5737 42.1718 29.8042 41.6277C31.0353 41.0833 32.0453 40.3357 32.624 39.3158L32.624 39.3157C33.7381 37.3546 33.7998 35.8335 33.3476 34.6615C32.8936 33.4847 31.9135 32.6386 30.9026 32.0477C29.7977 31.4039 28.558 31.0265 27.2185 30.8925C24.9705 30.6836 19.2075 30.341 14.3326 31.5908C13.2209 31.878 11.0695 32.6841 9.18085 33.4242C8.23782 33.7937 7.3623 34.146 6.71788 34.4074C6.39568 34.5382 6.13128 34.6462 5.94508 34.7223C5.92308 34.7313 5.90209 34.7399 5.88214 34.748C5.73668 34.8075 5.64726 34.844 5.63547 34.848L5.54775 34.8772L5.51174 34.7921L5.37651 34.4723L5.33775 34.3807L5.4292 34.3414C5.55957 34.2855 7.18336 33.6118 9.0557 32.8798C10.9259 32.1485 13.0525 31.3559 14.1844 31.0651L14.1845 31.065C19.144 29.7938 24.9856 30.1398 27.2618 30.349L27.2622 30.349C28.6892 30.4856 30.0062 30.8955 31.175 31.5672L31.1753 31.5673C32.504 32.3376 33.408 33.2876 33.8488 34.4086M16.8917 42.8932L33.7559 34.4456M16.8917 42.8932C16.8916 42.8932 16.8915 42.8932 16.8914 42.8932L16.8917 42.8932ZM33.8488 34.4086C33.8489 34.4088 33.8489 34.4089 33.849 34.4091L33.7559 34.4456M33.8488 34.4086C33.8488 34.4086 33.8488 34.4086 33.8488 34.4085L33.7559 34.4456M33.8488 34.4086C34.4542 35.9227 34.1835 37.6528 33.093 39.5744L33.093 39.5744C32.458 40.6909 31.3741 41.4959 30.0874 42.075C28.8004 42.6541 27.303 43.0107 25.8288 43.2259C22.881 43.6562 20.0092 43.5237 19.0594 43.462M33.7559 34.4456C34.346 35.9215 34.0879 37.6187 33.006 39.525C30.5227 43.891 20.9584 43.4852 19.0652 43.3622M19.0594 43.462C19.0596 43.462 19.0598 43.462 19.06 43.462L19.0652 43.3622M19.0594 43.462C19.0592 43.462 19.0589 43.462 19.0587 43.462L19.0652 43.3622M19.0594 43.462C18.8252 43.4497 18.5848 43.4378 18.3575 43.4497L18.3553 43.4499L18.3553 43.4498C18.0784 43.4585 17.7463 43.449 17.3719 43.4384C17.2097 43.4338 17.0396 43.4289 16.8626 43.4253L16.8617 43.4252L16.8143 43.4238C14.7199 43.3622 11.2349 43.2595 7.08598 44.0507M19.0652 43.3622C18.8316 43.3499 18.5858 43.3376 18.3522 43.3499C18.0784 43.3584 17.7511 43.3491 17.3784 43.3385C17.2156 43.3339 17.0441 43.329 16.8647 43.3253L16.8163 43.3239C14.7208 43.2621 11.2267 43.1592 7.06677 43.9525M1.84203 46.486L1.78654 46.4028C1.78729 46.4023 1.78901 46.4013 1.79167 46.3997L1.84203 46.486ZM1.84203 46.486L1.92842 46.4357L1.92828 46.4354C1.87513 46.4663 1.84513 46.484 1.84203 46.486ZM7.08598 44.0507C7.08617 44.0506 7.08636 44.0506 7.08656 44.0505L7.06677 43.9525M7.08598 44.0507C7.08582 44.0507 7.08566 44.0507 7.0855 44.0507L7.06677 43.9525M5.50152 34.4194C5.51707 34.4129 5.5369 34.4046 5.56081 34.3946L5.56071 34.3944L5.50152 34.4194Z" fill="#B5B5B5" stroke="#B5B5B5" stroke-width="0.2"/>
<path d="M36.0214 25.9515L35.9641 26.0339L36.0467 26.0909C37.4528 27.0619 39.1569 27.5844 40.8611 27.5844H40.8628C40.9717 27.5844 41.0857 27.5844 41.2124 27.5719C43.7662 27.4613 47.1165 27.2768 48.5752 27.0047L48.5754 27.0046C49.5936 26.8121 51.4431 26.1629 53.0577 25.5533C54.675 24.9428 56.0693 24.367 56.1825 24.3167L56.2722 24.2768L56.234 24.1863L56.0988 23.8666L56.0573 23.7684L55.9619 23.8161C55.9623 23.8159 55.9603 23.8168 55.9558 23.8187C55.9469 23.8224 55.9282 23.8304 55.8974 23.8432C55.8543 23.8612 55.792 23.8871 55.7129 23.9197C55.5546 23.9849 55.3289 24.0771 55.0532 24.1883C54.5018 24.4106 53.7506 24.7086 52.9392 25.0173C51.3127 25.6362 49.4561 26.2935 48.477 26.476L48.4767 26.4761C47.0596 26.745 43.737 26.917 41.1887 27.0279C39.4894 27.1007 37.765 26.6027 36.3565 25.6431L36.2747 25.5873L36.2181 25.6686L36.0214 25.9515Z" fill="#B5B5B5" stroke="#B5B5B5" stroke-width="0.2"/>
<path d="M7.61006 31.6477L7.65903 31.7212L7.73801 31.6817C7.74507 31.6782 7.75603 31.6712 7.76287 31.6668L7.76456 31.6657L7.80712 31.6382L7.82951 31.6237C7.86349 31.6017 7.90744 31.5733 7.96064 31.539C8.09212 31.4542 8.27993 31.334 8.51141 31.1891C8.97444 30.8993 9.61196 30.5108 10.3225 30.1098C11.7484 29.3049 13.4526 28.4589 14.6322 28.2471L14.6323 28.2471C17.1367 27.7949 21.7023 27.4152 26.5644 27.0109L26.6213 27.0062L26.6214 27.0061C26.9638 26.9772 27.3073 26.9483 27.6516 26.9193C30.9653 26.6402 34.3483 26.3552 37.4791 26.0097L37.4792 26.0097C42.572 25.4436 46.8283 24.6929 48.9079 24.2866C49.9488 24.0835 50.8241 23.3725 51.2427 22.3954L51.2822 22.303L51.1898 22.2639L50.8701 22.1286L50.7778 22.0895L50.739 22.182C50.3955 22.9995 49.6734 23.5799 48.8087 23.7459C46.7324 24.1392 42.494 24.9012 37.4204 25.4542L37.4202 25.4542C34.3003 25.7998 30.9175 26.0847 27.6003 26.3642C27.2594 26.3929 26.9192 26.4215 26.58 26.4502L26.5053 26.4564C21.6431 26.8597 17.0609 27.2398 14.5354 27.6936C13.2812 27.9183 11.5496 28.7722 10.1183 29.5773C8.69185 30.3797 7.54846 31.1423 7.44297 31.2127L7.4411 31.2139L7.35793 31.2694L7.41337 31.3526L7.61006 31.6477ZM26.5489 26.9118C21.6923 27.3157 17.1237 27.6956 14.6145 28.1487L48.8273 23.8441C49.7199 23.6729 50.4666 23.0758 50.8254 22.2344C50.8273 22.2298 50.8292 22.2253 50.8312 22.2207L50.9233 22.2594C50.9233 22.2595 50.9233 22.2596 50.9232 22.2597L51.0587 22.317C51.0587 22.3169 51.0588 22.3167 51.0589 22.3166L51.1508 22.356L51.1118 22.4481L51.1099 22.4473C50.6899 23.3471 49.8642 23.9981 48.8888 24.1885C46.8112 24.5943 42.5576 25.3446 37.4681 25.9103C34.3387 26.2557 30.9571 26.5405 27.6431 26.8196C27.2989 26.8486 26.9554 26.8776 26.613 26.9065L26.5489 26.9118Z" fill="#B5B5B5" stroke="#B5B5B5" stroke-width="0.2"/>
</svg>
