<svg width="17" height="22" viewBox="0 0 17 22" fill="none" xmlns="http://www.w3.org/2000/svg">
<path d="M15.422 0.785645H2.31156C1.48512 0.785645 0.819824 1.42379 0.819824 2.21204V20.3599C0.819824 21.1456 1.48512 21.7856 2.31156 21.7856H15.422C16.2458 21.7856 16.9144 21.1463 16.9144 20.3599V2.21204C16.9157 1.42379 16.2465 0.785645 15.422 0.785645ZM8.86742 21.2513C8.37686 21.2513 7.98015 20.8726 7.98015 20.405C7.98015 19.9367 8.37686 19.5574 8.86742 19.5574C9.35668 19.5574 9.7547 19.9367 9.7547 20.405C9.7547 20.8726 9.35668 21.2513 8.86742 21.2513ZM15.4045 18.8155H2.33033V2.4993H15.4045V18.8155Z" fill="white"/>
</svg>
