<svg width="13" height="21" viewBox="0 0 13 21" fill="none" xmlns="http://www.w3.org/2000/svg">
<path d="M11.0484 0.285645H1.68598C0.905978 0.285645 0.267578 0.893073 0.267578 1.6365V18.9342C0.267578 19.6776 0.905978 20.2856 1.68598 20.2856H11.0484C11.8284 20.2856 12.4668 19.6788 12.4668 18.9348V1.6365C12.4668 0.893073 11.8284 0.285645 11.0484 0.285645ZM4.86958 1.25936H7.86478C7.95958 1.25936 8.03638 1.3325 8.03638 1.42336C8.03638 1.51364 7.95958 1.58679 7.86478 1.58679H4.86958C4.77478 1.58679 4.69798 1.51364 4.69798 1.42336C4.69798 1.3325 4.77478 1.25936 4.86958 1.25936ZM6.36718 19.6102C5.97538 19.6102 5.65798 19.3079 5.65798 18.9342C5.65798 18.5605 5.97538 18.2588 6.36718 18.2588C6.75898 18.2588 7.07638 18.5605 7.07638 18.9342C7.07638 19.3079 6.75898 19.6102 6.36718 19.6102ZM11.4798 17.7856H1.25458V2.42793H11.4798V17.7856Z" fill="white"/>
</svg>
