<svg width="21" height="20" viewBox="0 0 21 20" fill="none" xmlns="http://www.w3.org/2000/svg">
<path d="M5.86724 3.41064H2.11724C1.42628 3.41064 0.867188 3.97094 0.867188 4.66062V18.4108C0.867188 19.1016 1.42628 19.6606 2.11724 19.6606H5.86728C6.5582 19.6606 7.11721 19.1016 7.11721 18.4108V4.66062C7.11717 3.97094 6.55816 3.41064 5.86724 3.41064ZM2.74225 15.9106C2.39675 15.9106 2.11724 15.6311 2.11724 15.2854C2.11724 14.9401 2.39675 14.6606 2.74225 14.6606C3.08766 14.6606 3.36717 14.9401 3.36717 15.2854C3.36717 15.6311 3.08766 15.9106 2.74225 15.9106ZM5.86724 8.41061H2.11724V7.16068H5.86728V8.41061H5.86724ZM5.86724 5.91063H2.11724V4.66062H5.86728V5.91063H5.86724Z" fill="white"/>
<path d="M13.9924 17.1607V15.9109H10.2422V17.1607C9.55145 17.1607 8.99219 17.72 8.99219 18.411H15.2422C15.2422 17.72 14.6832 17.1607 13.9924 17.1607Z" fill="white"/>
<path d="M19.6174 0.910645H4.61724C3.92633 0.910645 3.36719 1.47094 3.36719 2.1607H4.61724H8.36728H19.6174V12.1606H8.36724V14.6607H19.6174C20.3081 14.6607 20.8672 14.1017 20.8672 13.4104V2.16066C20.8672 1.4709 20.3081 0.910645 19.6174 0.910645ZM12.1173 14.0357C11.7718 14.0357 11.4923 13.7564 11.4923 13.4104C11.4923 13.0652 11.7718 12.7856 12.1173 12.7856C12.4628 12.7856 12.7423 13.0652 12.7423 13.4104C12.7423 13.7564 12.4628 14.0357 12.1173 14.0357Z" fill="white"/>
</svg>
