<svg width="58" height="59" viewBox="0 0 58 59" fill="none" xmlns="http://www.w3.org/2000/svg">
<path d="M57.4914 55.9911L43.3965 41.6532C47.1775 37.2315 49.4666 31.4623 49.4666 25.1568C49.4666 11.2767 38.3682 0 24.7362 0C11.0914 0 0.00585938 11.2898 0.00585938 25.1568C0.00585938 39.0237 11.1043 50.3135 24.7362 50.3135C30.9349 50.3135 36.6063 47.9849 40.9531 44.1388L55.048 58.4767C55.3824 58.8168 55.8325 59 56.2697 59C56.707 59 57.1571 58.8299 57.4914 58.4767C58.1602 57.7965 58.1602 56.6714 57.4914 55.9911ZM3.46528 25.1568C3.46528 13.2259 13.0076 3.53215 24.7234 3.53215C36.452 3.53215 45.9815 13.239 45.9815 25.1568C45.9815 37.0745 36.452 46.7945 24.7234 46.7945C13.0076 46.7945 3.46528 37.0876 3.46528 25.1568Z" fill="white"/>
</svg>
